<?xml version="1.0" encoding="utf-8"?>
<!-- Generator: Adobe Illustrator 16.0.0, SVG Export Plug-In . SVG Version: 6.00 Build 0)  -->
<!DOCTYPE svg PUBLIC "-//W3C//DTD SVG 1.1 Tiny//EN" "http://www.w3.org/Graphics/SVG/1.1/DTD/svg11-tiny.dtd">
<svg version="1.1" baseProfile="tiny" id="Layer_1" xmlns="http://www.w3.org/2000/svg" xmlns:xlink="http://www.w3.org/1999/xlink"
	 x="0px" y="0px" width="256px" height="94px" viewBox="0 0 256 94" xml:space="preserve">
<g>
	<g>
		<path fill="#231F20" d="M92.779,36.288c0,0.102-0.025,0.191-0.076,0.268c-0.051,0.077-0.141,0.137-0.268,0.182
			c-0.127,0.045-0.296,0.083-0.507,0.115c-0.21,0.032-0.475,0.048-0.794,0.048c-0.306,0-0.568-0.017-0.785-0.048
			c-0.217-0.031-0.389-0.07-0.516-0.115c-0.128-0.044-0.217-0.105-0.268-0.182c-0.051-0.076-0.076-0.166-0.076-0.268V12.526
			c0-0.102,0.028-0.191,0.086-0.268c0.057-0.076,0.153-0.137,0.287-0.181c0.134-0.045,0.307-0.083,0.517-0.116
			c0.21-0.031,0.462-0.047,0.755-0.047c0.319,0,0.583,0.016,0.794,0.047c0.21,0.032,0.379,0.071,0.507,0.116
			c0.127,0.044,0.217,0.105,0.268,0.181c0.051,0.077,0.076,0.166,0.076,0.268V36.288z"/>
		<path fill="#231F20" d="M113.825,36.307c0,0.103-0.026,0.188-0.077,0.258s-0.134,0.131-0.249,0.182
			c-0.115,0.051-0.274,0.089-0.479,0.115c-0.204,0.026-0.459,0.039-0.765,0.039c-0.319,0-0.581-0.013-0.784-0.039
			c-0.205-0.025-0.364-0.063-0.479-0.115c-0.115-0.051-0.198-0.112-0.249-0.182c-0.051-0.07-0.076-0.156-0.076-0.258V26.225
			c0-0.982-0.077-1.773-0.23-2.372c-0.153-0.6-0.376-1.116-0.669-1.55s-0.673-0.765-1.138-0.995
			c-0.466-0.229-1.004-0.344-1.617-0.344c-0.791,0-1.582,0.28-2.373,0.841c-0.791,0.562-1.62,1.384-2.487,2.468v12.034
			c0,0.103-0.026,0.188-0.077,0.258s-0.134,0.131-0.249,0.182c-0.115,0.051-0.274,0.089-0.479,0.115
			c-0.204,0.026-0.465,0.039-0.784,0.039c-0.306,0-0.562-0.013-0.766-0.039c-0.204-0.025-0.367-0.063-0.488-0.115
			c-0.121-0.051-0.204-0.112-0.249-0.182c-0.045-0.07-0.067-0.156-0.067-0.258V19.088c0-0.102,0.019-0.188,0.058-0.258
			c0.038-0.07,0.115-0.134,0.229-0.191c0.115-0.058,0.261-0.096,0.44-0.115c0.178-0.02,0.414-0.029,0.708-0.029
			c0.281,0,0.514,0.01,0.699,0.029c0.185,0.019,0.328,0.057,0.43,0.115c0.102,0.057,0.175,0.121,0.22,0.191
			c0.044,0.07,0.067,0.156,0.067,0.258v2.277c0.969-1.084,1.936-1.878,2.898-2.382s1.936-0.756,2.917-0.756
			c1.148,0,2.114,0.195,2.898,0.583c0.785,0.389,1.419,0.909,1.904,1.56c0.484,0.65,0.832,1.412,1.042,2.286
			s0.316,1.923,0.316,3.147V36.307z"/>
		<path fill="#231F20" d="M134.41,36.307c0,0.103-0.025,0.188-0.076,0.258s-0.134,0.131-0.249,0.182
			c-0.114,0.051-0.274,0.089-0.479,0.115c-0.204,0.026-0.459,0.039-0.765,0.039c-0.319,0-0.581-0.013-0.785-0.039
			c-0.204-0.025-0.363-0.063-0.478-0.115c-0.115-0.051-0.198-0.112-0.249-0.182s-0.076-0.156-0.076-0.258V26.225
			c0-0.982-0.077-1.773-0.229-2.372c-0.153-0.6-0.376-1.116-0.67-1.55s-0.673-0.765-1.139-0.995s-1.004-0.344-1.616-0.344
			c-0.791,0-1.582,0.28-2.373,0.841c-0.791,0.562-1.62,1.384-2.487,2.468v12.034c0,0.103-0.025,0.188-0.076,0.258
			c-0.051,0.07-0.134,0.131-0.249,0.182c-0.115,0.051-0.274,0.089-0.478,0.115c-0.204,0.026-0.466,0.039-0.785,0.039
			c-0.306,0-0.562-0.013-0.765-0.039c-0.204-0.025-0.367-0.063-0.488-0.115c-0.122-0.051-0.204-0.112-0.249-0.182
			c-0.045-0.07-0.067-0.156-0.067-0.258V19.088c0-0.102,0.019-0.188,0.058-0.258c0.039-0.07,0.115-0.134,0.229-0.191
			c0.115-0.058,0.261-0.096,0.44-0.115c0.179-0.02,0.415-0.029,0.708-0.029c0.281,0,0.513,0.01,0.698,0.029
			c0.185,0.019,0.328,0.057,0.431,0.115c0.102,0.057,0.175,0.121,0.22,0.191c0.045,0.07,0.067,0.156,0.067,0.258v2.277
			c0.969-1.084,1.935-1.878,2.898-2.382c0.963-0.504,1.935-0.756,2.917-0.756c1.147,0,2.114,0.195,2.898,0.583
			c0.784,0.389,1.419,0.909,1.903,1.56s0.832,1.412,1.043,2.286c0.21,0.874,0.315,1.923,0.315,3.147V36.307z"/>
		<path fill="#231F20" d="M156.183,27.506c0,1.403-0.185,2.694-0.556,3.875c-0.369,1.18-0.921,2.197-1.654,3.051
			s-1.651,1.521-2.755,2s-2.382,0.717-3.836,0.717c-1.416,0-2.649-0.21-3.702-0.631c-1.052-0.421-1.93-1.033-2.631-1.837
			c-0.701-0.803-1.224-1.779-1.568-2.927c-0.344-1.147-0.517-2.448-0.517-3.903c0-1.403,0.182-2.694,0.545-3.874
			c0.364-1.18,0.912-2.197,1.646-3.052c0.733-0.854,1.648-1.518,2.745-1.989c1.097-0.472,2.379-0.708,3.846-0.708
			c1.416,0,2.65,0.21,3.702,0.631s1.93,1.033,2.631,1.836c0.701,0.804,1.228,1.779,1.578,2.928
			C156.007,24.771,156.183,26.065,156.183,27.506z M152.911,27.717c0-0.931-0.087-1.811-0.261-2.641
			c-0.174-0.829-0.46-1.556-0.859-2.181c-0.398-0.625-0.939-1.119-1.622-1.482c-0.682-0.364-1.531-0.545-2.547-0.545
			c-0.94,0-1.748,0.166-2.424,0.498c-0.675,0.332-1.232,0.8-1.67,1.406s-0.762,1.323-0.975,2.152
			c-0.212,0.829-0.318,1.735-0.318,2.717c0,0.944,0.087,1.83,0.261,2.659c0.173,0.829,0.463,1.553,0.868,2.171
			c0.406,0.619,0.949,1.11,1.631,1.474c0.683,0.363,1.532,0.544,2.549,0.544c0.927,0,1.731-0.165,2.413-0.497
			c0.683-0.332,1.242-0.797,1.68-1.397c0.438-0.599,0.76-1.313,0.965-2.143C152.808,29.624,152.911,28.712,152.911,27.717z"/>
		<path fill="#231F20" d="M174.778,19.05c0,0.051-0.003,0.105-0.01,0.163c-0.006,0.057-0.016,0.118-0.028,0.182
			c-0.013,0.064-0.028,0.134-0.048,0.211c-0.02,0.076-0.042,0.16-0.066,0.248l-5.874,16.358c-0.052,0.141-0.117,0.255-0.201,0.344
			c-0.083,0.089-0.207,0.16-0.372,0.21c-0.167,0.051-0.377,0.086-0.632,0.105c-0.255,0.019-0.574,0.029-0.957,0.029
			s-0.701-0.013-0.956-0.039c-0.256-0.025-0.463-0.063-0.622-0.115c-0.159-0.051-0.284-0.121-0.373-0.21
			c-0.089-0.089-0.16-0.198-0.211-0.325l-5.854-16.358c-0.052-0.153-0.093-0.287-0.125-0.401c-0.031-0.115-0.051-0.201-0.057-0.259
			c-0.007-0.057-0.01-0.105-0.01-0.143c0-0.102,0.025-0.191,0.076-0.268c0.051-0.076,0.138-0.137,0.259-0.182
			c0.121-0.044,0.28-0.073,0.478-0.086c0.198-0.013,0.443-0.02,0.737-0.02c0.369,0,0.666,0.01,0.89,0.029
			c0.223,0.019,0.395,0.054,0.517,0.105c0.121,0.051,0.21,0.115,0.267,0.191c0.059,0.076,0.112,0.172,0.164,0.287l4.859,14.195
			l0.076,0.229l0.058-0.229l4.802-14.195c0.025-0.115,0.07-0.211,0.134-0.287c0.064-0.077,0.156-0.141,0.277-0.191
			c0.121-0.051,0.287-0.086,0.498-0.105c0.21-0.02,0.487-0.029,0.832-0.029c0.293,0,0.535,0.007,0.727,0.02s0.342,0.045,0.45,0.095
			c0.108,0.052,0.185,0.112,0.229,0.182C174.756,18.862,174.778,18.948,174.778,19.05z"/>
		<path fill="#231F20" d="M190.754,36.326c0,0.153-0.051,0.268-0.153,0.345c-0.103,0.076-0.242,0.134-0.421,0.172
			c-0.179,0.038-0.439,0.057-0.784,0.057c-0.332,0-0.597-0.019-0.794-0.057c-0.198-0.039-0.342-0.096-0.431-0.172
			c-0.09-0.077-0.134-0.191-0.134-0.345v-1.722c-0.753,0.804-1.592,1.429-2.516,1.875c-0.925,0.446-1.904,0.669-2.937,0.669
			c-0.906,0-1.726-0.118-2.459-0.354s-1.358-0.577-1.875-1.023c-0.517-0.446-0.918-0.995-1.205-1.646s-0.431-1.39-0.431-2.219
			c0-0.969,0.198-1.811,0.593-2.525c0.396-0.714,0.964-1.308,1.703-1.779c0.739-0.472,1.646-0.826,2.717-1.062
			c1.071-0.235,2.276-0.354,3.616-0.354h2.372v-1.339c0-0.663-0.07-1.25-0.211-1.76c-0.141-0.51-0.366-0.935-0.679-1.273
			c-0.312-0.337-0.718-0.593-1.215-0.765c-0.497-0.172-1.109-0.258-1.837-0.258c-0.777,0-1.477,0.093-2.095,0.278
			c-0.619,0.185-1.161,0.389-1.626,0.612c-0.466,0.224-0.855,0.428-1.167,0.612c-0.312,0.185-0.545,0.277-0.698,0.277
			c-0.103,0-0.191-0.025-0.269-0.076c-0.076-0.051-0.144-0.127-0.201-0.229c-0.057-0.102-0.099-0.233-0.124-0.393
			c-0.025-0.159-0.038-0.334-0.038-0.526c0-0.319,0.022-0.571,0.067-0.756c0.044-0.185,0.152-0.36,0.324-0.526
			c0.173-0.166,0.47-0.36,0.89-0.583c0.422-0.223,0.906-0.428,1.455-0.612c0.548-0.185,1.147-0.338,1.798-0.459
			c0.651-0.122,1.308-0.182,1.971-0.182c1.237,0,2.289,0.141,3.157,0.421c0.867,0.281,1.568,0.692,2.104,1.234
			c0.536,0.542,0.926,1.215,1.168,2.019c0.242,0.803,0.363,1.741,0.363,2.812V36.326z M187.616,28.463h-2.698
			c-0.867,0-1.619,0.074-2.257,0.22c-0.639,0.146-1.167,0.363-1.588,0.65c-0.421,0.287-0.73,0.632-0.928,1.033
			c-0.198,0.402-0.297,0.864-0.297,1.387c0,0.894,0.284,1.604,0.851,2.133c0.568,0.53,1.362,0.794,2.383,0.794
			c0.829,0,1.598-0.21,2.306-0.631c0.707-0.421,1.45-1.065,2.229-1.933V28.463z"/>
		<path fill="#231F20" d="M211.167,18.591c0.383,0,0.645,0.086,0.784,0.258c0.141,0.172,0.211,0.424,0.211,0.756v16.702
			c0,0.103-0.025,0.188-0.076,0.258c-0.052,0.07-0.138,0.131-0.259,0.182c-0.121,0.051-0.284,0.089-0.488,0.115
			c-0.204,0.026-0.452,0.039-0.745,0.039c-0.319,0-0.581-0.013-0.785-0.039c-0.204-0.025-0.366-0.063-0.487-0.115
			c-0.121-0.051-0.208-0.112-0.258-0.182c-0.052-0.07-0.077-0.156-0.077-0.258V21.212h-8.896v9.604c0,1.187,0.175,2.083,0.526,2.688
			c0.351,0.606,0.979,0.909,1.885,0.909c0.293,0,0.555-0.029,0.784-0.086c0.229-0.058,0.434-0.118,0.612-0.182
			c0.178-0.063,0.331-0.124,0.459-0.182c0.127-0.057,0.242-0.086,0.344-0.086c0.064,0,0.125,0.016,0.182,0.048
			c0.058,0.032,0.103,0.093,0.135,0.182c0.032,0.09,0.061,0.21,0.086,0.364c0.025,0.153,0.038,0.344,0.038,0.574
			c0,0.37-0.025,0.66-0.076,0.871s-0.128,0.37-0.229,0.478c-0.103,0.109-0.256,0.208-0.459,0.296
			c-0.205,0.09-0.438,0.163-0.698,0.22c-0.262,0.057-0.539,0.105-0.833,0.144c-0.293,0.038-0.587,0.058-0.88,0.058
			c-0.893,0-1.658-0.118-2.296-0.354c-0.638-0.236-1.161-0.593-1.568-1.072c-0.409-0.478-0.705-1.083-0.89-1.817
			c-0.186-0.733-0.277-1.598-0.277-2.592V21.212h-2.411c-0.191,0-0.345-0.102-0.459-0.306c-0.115-0.204-0.172-0.536-0.172-0.995
			c0-0.242,0.016-0.446,0.048-0.612c0.031-0.166,0.073-0.303,0.124-0.412s0.117-0.185,0.201-0.23
			c0.083-0.044,0.175-0.066,0.277-0.066h2.392v-4.094c0-0.089,0.021-0.172,0.066-0.249s0.127-0.144,0.249-0.201
			c0.121-0.058,0.283-0.099,0.487-0.125c0.204-0.025,0.459-0.038,0.766-0.038c0.319,0,0.58,0.013,0.784,0.038
			c0.204,0.026,0.363,0.067,0.479,0.125c0.115,0.057,0.198,0.124,0.249,0.201s0.076,0.16,0.076,0.249v4.094H211.167z
			 M212.525,13.272c0,0.74-0.141,1.243-0.421,1.511s-0.797,0.402-1.549,0.402c-0.74,0-1.248-0.13-1.521-0.392
			c-0.274-0.261-0.411-0.756-0.411-1.482c0-0.74,0.14-1.244,0.421-1.512c0.28-0.268,0.797-0.402,1.55-0.402
			c0.739,0,1.246,0.131,1.521,0.392C212.389,12.051,212.525,12.545,212.525,13.272z"/>
		<path fill="#231F20" d="M234.03,27.506c0,1.403-0.186,2.694-0.555,3.875c-0.371,1.18-0.922,2.197-1.655,3.051
			s-1.652,1.521-2.755,2c-1.104,0.478-2.382,0.717-3.836,0.717c-1.416,0-2.65-0.21-3.702-0.631c-1.053-0.421-1.93-1.033-2.631-1.837
			c-0.701-0.803-1.225-1.779-1.568-2.927c-0.345-1.147-0.517-2.448-0.517-3.903c0-1.403,0.182-2.694,0.545-3.874
			c0.363-1.18,0.912-2.197,1.646-3.052c0.732-0.854,1.647-1.518,2.745-1.989c1.098-0.472,2.379-0.708,3.846-0.708
			c1.416,0,2.649,0.21,3.702,0.631c1.052,0.421,1.929,1.033,2.631,1.836c0.7,0.804,1.227,1.779,1.578,2.928
			C233.854,24.771,234.03,26.065,234.03,27.506z M230.759,27.717c0-0.931-0.087-1.811-0.261-2.641
			c-0.175-0.829-0.461-1.556-0.859-2.181c-0.399-0.625-0.939-1.119-1.622-1.482c-0.683-0.364-1.531-0.545-2.548-0.545
			c-0.94,0-1.747,0.166-2.423,0.498c-0.676,0.332-1.232,0.8-1.67,1.406s-0.763,1.323-0.975,2.152
			c-0.213,0.829-0.318,1.735-0.318,2.717c0,0.944,0.086,1.83,0.261,2.659c0.174,0.829,0.463,1.553,0.868,2.171
			c0.405,0.619,0.949,1.11,1.632,1.474c0.682,0.363,1.531,0.544,2.548,0.544c0.927,0,1.73-0.165,2.413-0.497
			c0.682-0.332,1.241-0.797,1.68-1.397c0.438-0.599,0.759-1.313,0.965-2.143C230.655,29.624,230.759,28.712,230.759,27.717z"/>
		<path fill="#231F20" d="M253.507,36.307c0,0.103-0.026,0.188-0.077,0.258s-0.134,0.131-0.249,0.182
			c-0.114,0.051-0.274,0.089-0.479,0.115c-0.204,0.026-0.459,0.039-0.765,0.039c-0.319,0-0.581-0.013-0.785-0.039
			c-0.204-0.025-0.362-0.063-0.478-0.115c-0.115-0.051-0.198-0.112-0.249-0.182s-0.076-0.156-0.076-0.258V26.225
			c0-0.982-0.077-1.773-0.229-2.372c-0.153-0.6-0.376-1.116-0.67-1.55s-0.673-0.765-1.139-0.995
			c-0.465-0.229-1.004-0.344-1.616-0.344c-0.791,0-1.582,0.28-2.372,0.841c-0.792,0.562-1.62,1.384-2.487,2.468v12.034
			c0,0.103-0.026,0.188-0.076,0.258c-0.052,0.07-0.135,0.131-0.249,0.182c-0.115,0.051-0.274,0.089-0.479,0.115
			c-0.204,0.026-0.466,0.039-0.785,0.039c-0.306,0-0.561-0.013-0.765-0.039c-0.204-0.025-0.366-0.063-0.487-0.115
			c-0.122-0.051-0.204-0.112-0.249-0.182s-0.067-0.156-0.067-0.258V19.088c0-0.102,0.02-0.188,0.058-0.258
			c0.038-0.07,0.115-0.134,0.229-0.191c0.115-0.058,0.262-0.096,0.44-0.115c0.178-0.02,0.414-0.029,0.708-0.029
			c0.28,0,0.513,0.01,0.698,0.029c0.185,0.019,0.328,0.057,0.431,0.115c0.102,0.057,0.175,0.121,0.22,0.191
			c0.045,0.07,0.067,0.156,0.067,0.258v2.277c0.969-1.084,1.935-1.878,2.898-2.382c0.962-0.504,1.936-0.756,2.917-0.756
			c1.147,0,2.114,0.195,2.898,0.583c0.784,0.389,1.419,0.909,1.903,1.56s0.833,1.412,1.043,2.286s0.316,1.923,0.316,3.147V36.307z"
			/>
	</g>
	<g>
		<path fill="#231F20" d="M107.109,45.71c0,0.342-0.018,0.639-0.054,0.891s-0.099,0.455-0.189,0.607
			c-0.09,0.153-0.193,0.266-0.311,0.337c-0.117,0.072-0.239,0.108-0.364,0.108H93.394v11.88h12.095c0.126,0,0.247,0.031,0.365,0.095
			c0.117,0.062,0.22,0.166,0.311,0.311c0.09,0.144,0.152,0.337,0.189,0.58c0.036,0.243,0.054,0.554,0.054,0.932
			c0,0.342-0.018,0.634-0.054,0.877c-0.037,0.243-0.099,0.441-0.189,0.594c-0.09,0.153-0.194,0.271-0.311,0.352
			c-0.118,0.081-0.239,0.121-0.365,0.121H93.394v14.553c0,0.126-0.037,0.247-0.108,0.364c-0.072,0.117-0.198,0.207-0.378,0.271
			c-0.18,0.063-0.414,0.116-0.702,0.161c-0.289,0.045-0.666,0.068-1.134,0.068c-0.432,0-0.801-0.023-1.107-0.068
			s-0.549-0.098-0.729-0.161c-0.18-0.063-0.306-0.153-0.378-0.271c-0.072-0.117-0.108-0.238-0.108-0.364V45.602
			c0-0.702,0.185-1.192,0.554-1.471c0.369-0.279,0.76-0.418,1.174-0.418h15.713c0.125,0,0.247,0.036,0.364,0.107
			c0.117,0.073,0.22,0.189,0.311,0.351c0.09,0.162,0.153,0.374,0.189,0.635C107.091,45.067,107.109,45.369,107.109,45.71z"/>
		<path fill="#231F20" d="M142.937,60.775c0,2.826-0.333,5.373-0.999,7.642c-0.666,2.268-1.66,4.198-2.983,5.791
			s-2.983,2.817-4.981,3.672s-4.329,1.282-6.993,1.282c-2.628,0-4.9-0.392-6.817-1.175s-3.501-1.921-4.752-3.415
			c-1.251-1.493-2.182-3.348-2.794-5.562c-0.612-2.214-0.918-4.761-0.918-7.641c0-2.754,0.333-5.256,0.999-7.506
			c0.666-2.25,1.665-4.162,2.997-5.737c1.332-1.575,2.997-2.79,4.995-3.645c1.998-0.854,4.329-1.282,6.993-1.282
			c2.574,0,4.815,0.387,6.722,1.161c1.908,0.773,3.496,1.903,4.766,3.388c1.27,1.484,2.214,3.32,2.835,5.508
			C142.626,55.443,142.937,57.95,142.937,60.775z M138.022,61.101c0-1.98-0.176-3.821-0.526-5.521
			c-0.351-1.701-0.935-3.177-1.753-4.429c-0.817-1.25-1.91-2.228-3.275-2.929c-1.366-0.702-3.057-1.053-5.069-1.053
			c-2.014,0-3.704,0.378-5.069,1.134c-1.366,0.756-2.477,1.764-3.331,3.023c-0.854,1.26-1.465,2.731-1.833,4.415
			c-0.369,1.683-0.553,3.451-0.553,5.305c0,2.052,0.17,3.941,0.512,5.67c0.342,1.728,0.917,3.218,1.726,4.469
			c0.81,1.251,1.892,2.223,3.25,2.915c1.357,0.693,3.06,1.04,5.109,1.04c2.031,0,3.739-0.378,5.124-1.134
			c1.384-0.756,2.498-1.778,3.344-3.065c0.844-1.286,1.446-2.775,1.807-4.468C137.843,64.781,138.022,62.989,138.022,61.101z"/>
		<path fill="#231F20" d="M173.58,77.947c0,0.145-0.027,0.27-0.081,0.378c-0.055,0.108-0.171,0.198-0.352,0.27
			c-0.18,0.072-0.432,0.126-0.756,0.162c-0.323,0.036-0.756,0.055-1.296,0.055c-0.468,0-0.85-0.019-1.147-0.055
			c-0.297-0.036-0.535-0.095-0.715-0.175c-0.181-0.081-0.32-0.193-0.419-0.338c-0.099-0.144-0.185-0.324-0.256-0.54l-3.214-8.234
			c-0.377-0.936-0.769-1.796-1.174-2.579c-0.405-0.782-0.887-1.458-1.444-2.024c-0.559-0.567-1.215-1.008-1.971-1.323
			c-0.756-0.314-1.665-0.473-2.727-0.473h-3.105v14.877c0,0.145-0.04,0.27-0.122,0.378c-0.08,0.108-0.207,0.193-0.377,0.257
			c-0.172,0.063-0.405,0.116-0.702,0.161s-0.671,0.068-1.121,0.068s-0.823-0.023-1.12-0.068s-0.536-0.098-0.716-0.161
			s-0.306-0.148-0.378-0.257c-0.071-0.108-0.107-0.233-0.107-0.378V45.602c0-0.702,0.185-1.192,0.553-1.471
			c0.369-0.279,0.761-0.418,1.175-0.418h7.425c0.882,0,1.615,0.022,2.2,0.067s1.111,0.094,1.58,0.148
			c1.35,0.234,2.542,0.604,3.577,1.107c1.035,0.504,1.903,1.143,2.605,1.917s1.229,1.661,1.579,2.659
			c0.352,0.999,0.526,2.103,0.526,3.308c0,1.171-0.158,2.219-0.473,3.146s-0.769,1.746-1.363,2.457
			c-0.594,0.711-1.305,1.328-2.133,1.85s-1.755,0.963-2.781,1.323c0.576,0.252,1.098,0.571,1.566,0.958
			c0.468,0.388,0.904,0.851,1.31,1.391s0.787,1.16,1.147,1.863c0.359,0.701,0.72,1.494,1.08,2.375l3.132,7.695
			c0.251,0.647,0.413,1.103,0.486,1.363C173.544,77.601,173.58,77.804,173.58,77.947z M166.588,53.405
			c0-1.368-0.307-2.524-0.918-3.47c-0.612-0.944-1.639-1.624-3.078-2.038c-0.45-0.125-0.959-0.216-1.525-0.27
			c-0.567-0.054-1.31-0.081-2.228-0.081h-3.915v11.771h4.535c1.225,0,2.282-0.148,3.173-0.445c0.892-0.297,1.634-0.71,2.228-1.242
			c0.594-0.53,1.03-1.155,1.31-1.876C166.448,55.034,166.588,54.251,166.588,53.405z"/>
		<path fill="#231F20" d="M206.572,65.744c0,2.124-0.311,4.019-0.931,5.683c-0.622,1.665-1.508,3.073-2.66,4.226
			c-1.151,1.152-2.556,2.025-4.212,2.619s-3.537,0.891-5.643,0.891c-1.926,0-3.681-0.279-5.265-0.837s-2.943-1.382-4.076-2.471
			c-1.135-1.088-2.008-2.452-2.619-4.09c-0.612-1.638-0.918-3.528-0.918-5.67v-21.68c0-0.144,0.035-0.27,0.107-0.378
			s0.198-0.193,0.378-0.256s0.414-0.117,0.702-0.162c0.288-0.044,0.666-0.067,1.134-0.067c0.432,0,0.802,0.023,1.107,0.067
			c0.306,0.045,0.544,0.099,0.715,0.162c0.172,0.063,0.293,0.148,0.365,0.256c0.071,0.108,0.107,0.234,0.107,0.378v21.114
			c0,1.619,0.198,3.033,0.595,4.238c0.395,1.206,0.967,2.21,1.714,3.01c0.747,0.802,1.646,1.404,2.7,1.81
			c1.053,0.404,2.236,0.607,3.55,0.607c1.35,0,2.552-0.197,3.604-0.594s1.944-0.99,2.673-1.782c0.729-0.792,1.287-1.772,1.675-2.942
			c0.387-1.17,0.58-2.538,0.58-4.104V44.415c0-0.144,0.036-0.27,0.107-0.378c0.072-0.108,0.198-0.193,0.378-0.256
			s0.419-0.117,0.716-0.162c0.297-0.044,0.67-0.067,1.12-0.067c0.433,0,0.797,0.023,1.094,0.067
			c0.297,0.045,0.531,0.099,0.702,0.162s0.297,0.148,0.378,0.256s0.121,0.234,0.121,0.378V65.744z"/>
		<path fill="#231F20" d="M253.767,77.947c0,0.145-0.037,0.27-0.111,0.378s-0.204,0.193-0.39,0.257s-0.421,0.116-0.709,0.161
			c-0.287,0.045-0.663,0.068-1.126,0.068c-0.427,0-0.793-0.023-1.099-0.068s-0.546-0.098-0.723-0.161s-0.301-0.148-0.376-0.257
			c-0.074-0.108-0.111-0.233-0.111-0.378V47.52h-0.053l-12.312,30.562c-0.054,0.126-0.13,0.234-0.229,0.324
			c-0.099,0.091-0.242,0.166-0.432,0.229c-0.188,0.062-0.414,0.107-0.675,0.135c-0.262,0.027-0.571,0.041-0.932,0.041
			c-0.377,0-0.702-0.019-0.972-0.055s-0.495-0.085-0.675-0.148c-0.181-0.062-0.32-0.139-0.418-0.229
			c-0.1-0.09-0.168-0.188-0.203-0.297L220.45,47.52h-0.026v30.428c0,0.145-0.038,0.27-0.112,0.378s-0.203,0.193-0.389,0.257
			c-0.187,0.063-0.427,0.116-0.724,0.161s-0.677,0.068-1.14,0.068c-0.445,0-0.816-0.023-1.112-0.068
			c-0.297-0.045-0.533-0.098-0.709-0.161c-0.177-0.063-0.297-0.148-0.362-0.257c-0.064-0.108-0.097-0.233-0.097-0.378V45.818
			c0-0.756,0.201-1.296,0.603-1.62c0.402-0.324,0.851-0.485,1.344-0.485h2.852c0.585,0,1.096,0.054,1.535,0.162
			c0.438,0.108,0.822,0.28,1.151,0.513c0.328,0.234,0.603,0.531,0.822,0.891c0.22,0.361,0.411,0.783,0.576,1.269l9.989,25.297h0.135
			l10.396-25.216c0.2-0.54,0.42-0.999,0.658-1.377c0.237-0.378,0.498-0.679,0.781-0.905c0.283-0.224,0.599-0.386,0.946-0.485
			s0.75-0.148,1.207-0.148h2.989c0.274,0,0.535,0.04,0.782,0.121c0.246,0.082,0.457,0.208,0.631,0.378
			c0.174,0.171,0.315,0.387,0.426,0.647c0.109,0.261,0.164,0.581,0.164,0.958V77.947z"/>
	</g>
	<g>
		<polygon fill="#199BD7" points="48.072,34.878 48.878,91.965 65.021,27.805 		"/>
		<polygon fill="#DCDA20" points="47.609,2.035 2.233,54.008 48.072,34.878 		"/>
		<polygon fill="#009548" points="2.233,54.008 48.878,91.965 48.072,34.878 		"/>
	</g>
</g>
</svg>
