<svg xmlns="http://www.w3.org/2000/svg" viewBox="0 0 244.22 46.36"><title>aboutus</title><g id="レイヤー_2" data-name="レイヤー 2"><g id="レイヤー_1-2" data-name="レイヤー 1"><path d="M0,45.77,15.92,0h8.89L40.73,45.77H30.84l-2.78-8.69H12.74L10,45.77ZM15.19,29.25H25.54L20.36,13.13Z"/><path d="M51.94,14.66C53.73,12.74,56.25,12,59.1,12c8,0,13.07,5.17,13.07,15.12v4c0,9.09-4.32,15.25-13.07,15.25-3.25,0-5.57-.86-7.16-2.58v2h-8V0h8Zm11.8,16.18V27.39c0-5.3-1.72-8.22-5.9-8.22s-5.9,2.92-5.9,8.22v3.45c0,4.78,1.46,8.36,5.9,8.36S63.74,35.62,63.74,30.84Z"/><path d="M105.2,31.11c0,9.09-4.31,15.25-14.33,15.25-9.62,0-14.33-6-14.33-15.25v-4C76.54,17.18,81.78,12,90.87,12s14.33,5.17,14.33,15.12Zm-8.43-.27V27.39c0-5.3-1.72-8.22-5.9-8.22S85,22.09,85,27.39v3.45c0,4.78,1.19,8.36,5.9,8.36S96.77,35.62,96.77,30.84Z"/><path d="M138.89,45.77H130.6V43c-1.39,2.26-3.18,3.38-7.56,3.38-6.7,0-12.2-3.31-12.2-13.06V12.6h8.49V32c0,5.24,1.85,7,5.37,7,3.91,0,5.77-2.39,5.77-7V12.6h8.42Z"/><path d="M143.27,12.6h4.25V5.31h8.42V12.6h6.5v7.17h-6.5V33.63c0,3.32.66,4.71,3.78,4.71h2.72v7.43h-3.58c-8,0-11.34-2.26-11.34-10.81V19.77h-4.25Z"/><path d="M212.32,45.77H204V43c-1.4,2.26-3.19,3.38-7.56,3.38-6.7,0-12.21-3.31-12.21-13.06V12.6h8.49V32c0,5.24,1.86,7,5.37,7,3.92,0,5.78-2.39,5.78-7V12.6h8.42Z"/><path d="M237.32,22c-1.45-1.73-2.91-2.66-6.5-2.66-2.18,0-4.17.67-4.17,2.59s1.79,2.72,5.3,3.25c8.16,1.26,12.27,4.38,12.27,10.94,0,6.37-4.44,10.28-13,10.28-6.76,0-10.88-1.65-13.73-5.5l6.5-4.64c1.33,1.79,3,2.85,7.1,2.85,2.92,0,4.71-1,4.71-2.72,0-2.06-1.46-2.72-5.64-3.38-6.9-1.13-11.94-4-11.94-10.75,0-6.3,4.51-10.21,12.8-10.21,5.44,0,9.95,1.26,12.54,5.5Z"/></g></g></svg>