<svg xmlns="http://www.w3.org/2000/svg" viewBox="0 0 400.76 58.37"><title>annualreport_2</title><g id="レイヤー_2" data-name="レイヤー 2"><g id="レイヤー_1-2" data-name="レイヤー 1"><path d="M0,45.77,15.92,0h8.89L40.73,45.77H30.84l-2.78-8.69H12.73L10,45.77ZM15.19,29.25H25.54L20.36,13.13Z"/><path d="M43.91,12.6H52.2v2.79A9.54,9.54,0,0,1,59.83,12C66.53,12,72,15.19,72,25V45.77H63.54V26.33c0-5.17-1.85-7-5.3-7-3.92,0-5.84,2.59-5.84,7v19.5H43.91Z"/><path d="M78.8,12.6h8.29v2.79A9.54,9.54,0,0,1,94.72,12c6.7,0,12.14,3.18,12.14,13V45.77H98.43V26.33c0-5.17-1.86-7-5.3-7-3.92,0-5.84,2.59-5.84,7v19.5H78.8Z"/><path d="M141.74,45.77h-8.29V43c-1.39,2.26-3.18,3.39-7.56,3.39-6.7,0-12.2-3.32-12.2-13.07V12.6h8.49V32c0,5.24,1.85,7,5.37,7,3.91,0,5.77-2.39,5.77-7V12.6h8.42Z"/><path d="M159.19,25.87h6.56V24c0-3.72-1.12-4.91-5.9-4.91-3.25,0-4.84.46-6.23,2.65l-6-4.18c2.45-4.05,6.17-5.5,13-5.5,8.55,0,13.4,2.52,13.4,12V45.77h-8.3V42.85c-1.32,2.25-3.31,3.52-7.16,3.52-6.9,0-11.67-3.65-11.67-10.42C146.92,28.92,152.22,25.87,159.19,25.87Zm6.56,6.23h-5.57c-3.45,0-5,1.13-5,3.72s1.92,3.71,4.84,3.71c3.85,0,5.7-1.65,5.7-6.17Z"/><path d="M180.81,0h8.49V33.23c0,3.58,1.06,5.24,4.64,5.24v7.3c-8.95,0-13.13-2.32-13.13-10.62Z"/><path d="M242.37,45.77l-8.23-18h-7.43v18h-9.29V0h16.39c10.54,0,17.11,4.71,17.11,14,0,6.16-2.85,10.21-7.83,12.27l9.49,19.5ZM233,20c5.5,0,8.68-1.19,8.68-6S238.45,7.89,233,7.89h-6.24V20Z"/><path d="M282.89,40.73c-2.32,4-6.17,5.64-12.14,5.64-9.95,0-14.72-6.44-14.72-15V26.86c0-10,5-14.85,13.66-14.85,9.35,0,13.67,5.44,13.67,15.52v3.78H264.45c.07,4.57,1.53,7.89,6.24,7.89,3.51,0,4.64-1.06,5.9-2.85ZM264.45,25.27h10.42c-.2-4.31-1.93-6.1-5.11-6.1C266.38,19.17,264.78,21.49,264.45,25.27Z"/><path d="M318.18,31.37c0,8.63-4.38,15-12.94,15-3.45,0-5.77-.67-7.29-1.93V58.37h-8.49V12.6H298v2.19c1.59-1.79,4-2.78,7.36-2.78,7.69,0,12.87,5.37,12.87,14.85Zm-8.49-.53V27.39c0-5.3-1.66-8.22-5.84-8.22s-5.9,2.65-5.9,7.49v4.18c0,4.78,1.13,8.36,5.9,8.36C308.43,39.2,309.69,35.62,309.69,30.84Z"/><path d="M351.21,31.11c0,9.09-4.31,15.26-14.33,15.26-9.61,0-14.32-6-14.32-15.26v-4c0-9.95,5.24-15.12,14.32-15.12s14.33,5.17,14.33,15.12Zm-8.42-.27V27.39c0-5.3-1.73-8.22-5.91-8.22s-5.9,2.92-5.9,8.22v3.45c0,4.78,1.19,8.36,5.9,8.36S342.79,35.62,342.79,30.84Z"/><path d="M374.82,21.82a4.88,4.88,0,0,0-4.18-2.52c-3.18,0-5.3,2.32-5.3,7v19.5h-8.49V12.6h8.29v2.79c1.13-1.66,3.32-3.38,7.23-3.38a9.69,9.69,0,0,1,8.95,5.17Z"/><path d="M381.59,12.6h4.24V5.31h8.43V12.6h6.5v7.17h-6.5V33.63c0,3.32.66,4.71,3.78,4.71h2.72v7.43h-3.58c-8,0-11.35-2.26-11.35-10.81V19.77h-4.24Z"/></g></g></svg>