<svg xmlns="http://www.w3.org/2000/svg" viewBox="0 0 208.14 46.96"><title>contact</title><g id="レイヤー_2" data-name="レイヤー 2"><g id="レイヤー_1-2" data-name="レイヤー 1"><path d="M25.4,14.79c-.86-4.31-3.38-7-7.89-7-5.37,0-8.22,3.65-8.22,12.4v6.5c0,8.49,2.85,12.4,8.22,12.4,4.64,0,6.9-2.32,7.89-7h8.83C32.7,42.45,26.93,47,17.51,47,7.23,47,0,40.73,0,26.73v-6.5C0,6.1,7.23,0,17.51,0,26.6,0,32.77,4.78,34.29,14.79Z"/><path d="M67.13,31.71C67.13,40.79,62.81,47,52.8,47c-9.62,0-14.33-6-14.33-15.25v-4c0-9.95,5.24-15.13,14.33-15.13s14.33,5.18,14.33,15.13Zm-8.43-.27V28c0-5.3-1.72-8.22-5.9-8.22S46.89,22.69,46.89,28v3.45c0,4.78,1.2,8.36,5.91,8.36S58.7,36.22,58.7,31.44Z"/><path d="M72.76,13.2h8.29V16a9.56,9.56,0,0,1,7.63-3.39c6.7,0,12.14,3.19,12.14,13V46.36H92.4V26.93c0-5.17-1.86-7-5.31-7-3.91,0-5.84,2.59-5.84,7v19.5H72.76Z"/><path d="M105.2,13.2h4.24V5.9h8.43v7.3h6.5v7.16h-6.5V34.23c0,3.31.66,4.71,3.78,4.71h2.72v7.42h-3.58c-8,0-11.35-2.25-11.35-10.81V20.36H105.2Z"/><path d="M140.22,26.47h6.57V24.54c0-3.71-1.13-4.91-5.91-4.91-3.25,0-4.84.47-6.23,2.66l-6-4.18c2.45-4,6.17-5.51,13-5.51,8.55,0,13.4,2.52,13.4,12V46.36h-8.29V43.45c-1.33,2.25-3.32,3.51-7.17,3.51C132.72,47,128,43.31,128,36.55,128,29.52,133.25,26.47,140.22,26.47Zm6.57,6.23h-5.58c-3.44,0-5,1.13-5,3.72s1.92,3.71,4.84,3.71c3.85,0,5.71-1.66,5.71-6.17Z"/><path d="M187.51,41.32c-2.32,3.92-6.1,5.64-12.07,5.64-9.48,0-14.79-6-14.79-15V27.46c0-9.68,5.37-14.86,15.25-14.86,5.11,0,9.29,1.86,11.61,5.51l-6.37,4.44a6.24,6.24,0,0,0-5.43-2.78c-4.78,0-6.64,2.92-6.64,8.22v3.45c0,4.78,1.26,8.36,6.64,8.36a5.82,5.82,0,0,0,5.5-2.85Z"/><path d="M189,13.2h4.25V5.9h8.42v7.3h6.5v7.16h-6.5V34.23c0,3.31.66,4.71,3.78,4.71h2.72v7.42h-3.58c-8,0-11.34-2.25-11.34-10.81V20.36H189Z"/></g></g></svg>