<svg width="59" height="492" viewBox="0 0 59 492" fill="none" xmlns="http://www.w3.org/2000/svg">
<rect width="58.38" height="491.078" fill="black" fill-opacity="0" transform="translate(58.3799 491.078) rotate(-180)"/>
<rect width="58.38" height="491.078" fill="black" fill-opacity="0" transform="translate(58.3799 491.078) rotate(-180)"/>
<rect width="58.38" height="491.078" fill="black" fill-opacity="0" transform="translate(58.3799 491.078) rotate(-180)"/>
<path d="M58.3799 37.8099L49.2299 36.0199V18.0799L40.8699 16.4899V32.4399L31.7199 30.6499L31.7199 14.7299L21.7199 12.8099V30.7099L12.5599 28.9199L12.5599 -6.10352e-05L58.3799 8.88992V37.8099Z" fill="#FF7171"/>
<path d="M45.7799 39.9999V49.6799L43.7799 49.3499C45.6082 51.6435 46.549 54.5191 46.4299 57.4499C46.4299 63.4499 42.7799 68.3199 33.1599 66.4499L12.5999 62.4499V52.4499L31.1799 56.0799C35.9599 57.0099 37.9499 56.4099 37.9499 53.0799C37.9499 49.4399 35.4299 47.9099 31.2499 47.0799L12.6099 43.4399L12.6099 33.4899L45.7799 39.9999Z" fill="#FF7171"/>
<path d="M45.7798 72.5699V76.8099L53.0698 78.2099V88.1599L45.7798 86.7599V92.7599L37.3798 91.0799V85.0799L24.9798 82.6999C22.3198 82.1699 21.1998 82.6999 21.1998 85.1499V87.9399L12.5698 86.2799V82.3599C12.5698 74.4699 15.4898 70.8899 23.7198 72.4799L37.3798 75.1499V70.9099L45.7798 72.5699Z" fill="#FF7171"/>
<path d="M35.5599 113.29C36.2371 113.131 36.841 112.748 37.2745 112.204C37.708 111.66 37.9459 110.986 37.9499 110.29C37.9499 107.44 35.9499 105.38 31.5199 104.52L12.6099 100.87L12.6099 90.9199L45.7799 97.3699V107.08L43.5899 106.68C45.4502 108.732 46.468 111.41 46.4399 114.18C46.4399 117.96 44.0499 120.41 40.7399 121.6L35.5599 113.29Z" fill="#FF7171"/>
<path d="M17.5199 146.08C13.5199 142.83 11.9499 138.98 11.9499 132.48C11.9499 122.14 19.5099 118.95 26.9499 120.41L31.5899 121.34C41.8599 123.38 46.4399 128.48 46.4399 138.08C46.4399 147.68 39.9399 150.68 30.5899 148.96L26.6699 148.23L26.6699 130.23C22.8899 129.64 20.3099 130.1 20.3099 134.15C20.3099 137.26 21.2399 138.06 22.7599 139.59L17.5199 146.08ZM33.3099 131.67V139.56C36.9599 140.02 38.0799 138.9 38.0799 136.56C38.0799 133.99 36.2899 132.53 33.3099 131.67Z" fill="#FF7171"/>
<path d="M26.9399 182.74C17.4499 180.95 11.9399 175.44 11.9399 167.09C11.9399 164.09 12.5999 162.04 13.5299 160.92L-9.53674e-05 158.26L-9.53674e-05 148.31L45.7799 157.2V167.15L44.3899 166.89C45.8289 168.966 46.5489 171.456 46.4399 173.98C46.4399 181.35 40.5999 185.26 31.5799 183.6L26.9399 182.74ZM27.7999 172.92L30.7199 173.52C35.6299 174.52 38.0799 173.92 38.0799 170.34C38.0799 166.76 35.6299 165.16 30.7199 164.23L26.8099 163.5C22.9599 162.77 20.3099 162.97 20.3099 166.82C20.3099 170.93 23.3799 172.08 27.7999 172.92V172.92Z" fill="#FF7171"/>
<path d="M35.56 207.28C36.2363 207.119 36.8393 206.736 37.2725 206.192C37.7057 205.648 37.9442 204.975 37.95 204.28C37.95 201.42 35.95 199.37 31.52 198.51L12.61 194.86L12.61 184.91L45.78 191.36V201.08L43.59 200.68C45.448 202.729 46.4656 205.404 46.44 208.17C46.44 211.95 44.05 214.41 40.74 215.6L35.56 207.28Z" fill="#FF7171"/>
<path d="M17.52 240.08C13.52 236.83 11.95 232.98 11.95 226.48C11.95 216.13 19.51 212.95 26.95 214.41L31.59 215.34C41.87 217.34 46.45 222.5 46.45 232.12C46.45 241.74 39.95 244.72 30.6 243L26.68 242.27L26.68 224.27C22.9 223.67 20.32 224.14 20.32 228.18C20.32 231.3 21.25 232.1 22.77 233.62L17.52 240.08ZM33.31 225.68V233.58C36.96 234.04 38.08 232.91 38.08 230.58C38.08 227.98 36.29 226.52 33.31 225.65V225.68Z" fill="#FF7171"/>
<path d="M45.7799 251.19V260.87L43.7799 260.54C45.6082 262.833 46.549 265.709 46.4299 268.64C46.4299 274.64 42.7799 279.51 33.1599 277.64L12.5999 273.64V263.69L31.1799 267.31C35.9599 268.24 37.9499 267.64 37.9499 264.31C37.9499 260.67 35.4299 259.14 31.2499 258.31L12.6099 254.67L12.6099 244.72L45.7799 251.19Z" fill="#FF7171"/>
<path d="M17.52 307.08C13.52 303.83 11.95 299.98 11.95 293.48C11.95 283.13 19.51 279.95 26.95 281.41L31.59 282.33C41.87 284.39 46.45 289.5 46.45 299.12C46.45 308.74 39.95 311.72 30.6 309.99L26.68 309.26L26.68 291.26C22.9 290.66 20.32 291.13 20.32 295.17C20.32 298.29 21.25 299.09 22.77 300.61L17.52 307.08ZM33.31 292.68V300.58C36.96 301.04 38.08 299.91 38.08 297.58C38.08 295.03 36.29 293.57 33.31 292.71V292.68Z" fill="#FF7171"/>
<path d="M12.6098 340.73V330.98L14.7998 331.38C12.7998 329.66 11.9498 327.93 11.9498 323.89C11.9498 317.89 15.6598 312.34 25.0798 314.2L45.7798 318.2V328.2L26.9398 324.55C22.4298 323.69 20.4398 324.35 20.4398 327.67C20.4398 330.99 22.2998 332.67 26.8698 333.5L45.7798 337.15V347.15L12.6098 340.73Z" fill="#FF7171"/>
<path d="M35.5599 369.08C36.2354 368.917 36.8374 368.534 37.2703 367.991C37.7033 367.447 37.9424 366.775 37.9499 366.08C37.9499 363.23 35.9499 361.17 31.5199 360.31L12.6099 356.66L12.6099 346.71L45.7799 353.14V362.82L43.5899 362.42C45.4502 364.472 46.468 367.15 46.4399 369.92C46.4399 373.7 44.0499 376.15 40.7399 377.35L35.5599 369.08Z" fill="#FF7171"/>
<path d="M35.6299 396.71C37.0899 395.79 37.9499 394.59 37.9499 391.54C37.9499 390.02 37.6199 388.09 35.9499 388.09C35.0199 388.09 34.4899 389.09 33.9499 391.74C32.4899 399.17 28.9499 402.29 23.8699 402.29C16.3699 402.29 11.9299 396.58 11.9299 386.7C11.9299 379.93 13.7199 376.15 17.6299 373.9L23.0099 382.39C21.4799 383.25 20.4199 384.39 20.4199 388.16C20.4199 390.55 21.0799 392.07 22.4799 392.07C23.5399 392.07 23.9999 390.94 24.5999 388.22C26.0599 381.92 29.3099 377.88 34.5499 377.88C41.6499 377.88 46.4199 383.18 46.4199 393.4C46.4199 398.84 44.8999 403.02 40.7799 404.94L35.6299 396.71Z" fill="#FF7171"/>
<path d="M58.3799 413.96V423.96L44.1199 421.24C45.7309 423.529 46.5459 426.283 46.4399 429.08C46.4399 434.85 42.7299 439.83 33.4399 438.08L12.6099 434.03V424.08L31.5199 427.69C35.9599 428.55 37.9499 427.89 37.9499 424.69C37.9499 421.24 35.8299 419.51 31.5799 418.69L12.5799 414.97L12.5799 405.08L58.3799 413.96Z" fill="#FF7171"/>
<path d="M45.7799 447.39V457.34L12.6099 450.91V440.96L45.7799 447.39ZM58.3799 449.51V460.08L49.0899 458.29V447.72L58.3799 449.51Z" fill="#FF7171"/>
<path d="M26.9399 489.84C17.4499 488.05 11.9399 482.54 11.9399 474.19C11.9399 471.19 12.5999 469.14 13.5299 468.02L-0.000106812 465.36L-0.000106812 455.36L45.7799 464.3V474.3L44.3899 474.04C45.8184 476.102 46.5379 478.573 46.4399 481.08C46.4399 488.45 40.5999 492.36 31.5799 490.7L26.9399 489.84ZM27.7999 480.02L30.7199 480.62C35.6299 481.62 38.0799 481.02 38.0799 477.44C38.0799 473.86 35.6299 472.26 30.7199 471.33L26.8099 470.6C22.9599 469.87 20.3099 470.07 20.3099 473.92C20.3099 478.03 23.3799 479.16 27.7999 480.02V480.02Z" fill="#FF7171"/>
</svg>
