<svg xmlns="http://www.w3.org/2000/svg" viewBox="0 0 372.34 407.71"><defs><style>.cls-1{fill:#231815;}</style></defs><title>entrysheet</title><g id="レイヤー_2" data-name="レイヤー 2"><g id="レイヤー_1-2" data-name="レイヤー 1"><path class="cls-1" d="M250.11,251.79H58.81a7.62,7.62,0,0,0,0,15.23h191.3a7.62,7.62,0,1,0,0-15.23Z"/><path class="cls-1" d="M289.93,322.92l-59-3.18a9.52,9.52,0,0,0-10,10l3.18,59H19v-347h243.5l19-19H9.5A9.51,9.51,0,0,0,0,32.22v366a9.49,9.49,0,0,0,9.5,9.5H234.18a7,7,0,0,0,5-1.64,9.68,9.68,0,0,0,1.72-1.14l65.26-65.26a9.63,9.63,0,0,0,1.12-1.68,8.65,8.65,0,0,0,.91-1.38,9.29,9.29,0,0,0,.75-3.66V131.49l-19,19Zm-47.41,53.5-2-37.12,37.14,2Z"/><path class="cls-1" d="M218.51,85.72H58.81a7.62,7.62,0,0,0,0,15.23H203.28Z"/><path class="cls-1" d="M51.21,134.85a7.6,7.6,0,0,0,7.6,7.62H174.23l2.16-9.35.66-2.27.18-.49.24-.66.14-.34a21.24,21.24,0,0,1,1.11-2.13H58.81A7.6,7.6,0,0,0,51.21,134.85Z"/><path class="cls-1" d="M166.31,176.73l1.84-8H58.81a7.62,7.62,0,0,0,0,15.24H165.86c-.05-.6-.18-1.18-.18-1.79a24.18,24.18,0,0,1,.6-5.35Z"/><path class="cls-1" d="M250.11,293.3H58.81a7.62,7.62,0,0,0,0,15.24h191.3a7.62,7.62,0,1,0,0-15.24Z"/><path class="cls-1" d="M250.11,210.27H58.81a7.62,7.62,0,0,0,0,15.24h191.3a7.62,7.62,0,1,0,0-15.24Z"/><path class="cls-1" d="M312.9,25.9a4.45,4.45,0,0,0-6.28,0L197,135.48l0,0-.84,1.27-.13.34-.18.49-10.08,43.61a4.45,4.45,0,0,0,5.33,5.32l43.61-10.07.44-.17.37-.14,1.29-.85,0,0L346.43,65.72a4.41,4.41,0,0,0,0-6.27ZM210,173.07,199.27,162.3l3.43-14.89,22.23,22.23Z"/><path class="cls-1" d="M371.05,34.85,337.5,1.3a4.45,4.45,0,0,0-6.28,0L320.05,12.47a4.42,4.42,0,0,0,0,6.28L353.58,52.3a4.44,4.44,0,0,0,6.27,0l11.2-11.18a4.45,4.45,0,0,0,0-6.27Z"/></g></g></svg>