<svg xmlns="http://www.w3.org/2000/svg" viewBox="0 0 427.76 46.36"><title>frompresident</title><g id="レイヤー_2" data-name="レイヤー 2"><g id="レイヤー_1-2" data-name="レイヤー 1"><path d="M28.52,0V7.89H9.29V19.24H26.53v7.82H9.29V45.77H0V0Z"/><path d="M51.41,21.82a4.91,4.91,0,0,0-4.18-2.52c-3.19,0-5.31,2.32-5.31,7v19.5H33.43V12.6h8.29v2.79C42.85,13.73,45,12,49,12a9.7,9.7,0,0,1,9,5.17Z"/><path d="M88.08,31.11c0,9.09-4.31,15.25-14.32,15.25-9.62,0-14.33-6-14.33-15.25v-4C59.43,17.18,64.67,12,73.76,12s14.32,5.17,14.32,15.12Zm-8.42-.27V27.39c0-5.3-1.72-8.22-5.9-8.22s-5.91,2.92-5.91,8.22v3.45c0,4.78,1.2,8.36,5.91,8.36S79.66,35.62,79.66,30.84Z"/><path d="M120.92,45.77h-8.43V26.33c0-5.3-2-7-5-7s-5.24,2.26-5.24,7v19.5H93.72V12.6H102v2.79A8.77,8.77,0,0,1,109.38,12a10.81,10.81,0,0,1,9.28,4.44A12.09,12.09,0,0,1,128.21,12c7.23,0,11.48,4.37,11.48,13V45.77H131.2V26.33c0-5-1.73-7-5.11-7-3,0-5.17,2.26-5.17,7Z"/><path d="M173.45,29.65V45.77h-9.29V0h16.39c10.54,0,17.11,4.84,17.11,14.66s-6.5,15-17.11,15Zm5.77-7.83c6.44,0,9.16-2.25,9.16-7.16,0-4.38-2.72-6.77-9.16-6.77h-5.77V21.82Z"/><path d="M220.15,21.82A4.91,4.91,0,0,0,216,19.3c-3.19,0-5.31,2.32-5.31,7v19.5h-8.49V12.6h8.29v2.79c1.13-1.66,3.32-3.38,7.23-3.38a9.7,9.7,0,0,1,9,5.17Z"/><path d="M255,40.73c-2.33,4-6.17,5.63-12.14,5.63-10,0-14.73-6.43-14.73-15V26.86c0-10,5-14.85,13.67-14.85,9.35,0,13.66,5.43,13.66,15.52v3.78H236.6c.06,4.57,1.52,7.89,6.23,7.89,3.52,0,4.64-1.06,5.9-2.85ZM236.6,25.27H247c-.2-4.31-1.92-6.1-5.11-6.1C238.52,19.17,236.93,21.49,236.6,25.27Z"/><path d="M279.78,22c-1.46-1.73-2.92-2.66-6.5-2.66-2.19,0-4.18.67-4.18,2.59s1.79,2.72,5.3,3.25c8.16,1.26,12.27,4.38,12.27,10.94,0,6.37-4.44,10.28-13,10.28-6.76,0-10.87-1.65-13.73-5.5l6.5-4.64c1.33,1.79,3,2.85,7.1,2.85,2.92,0,4.71-1,4.71-2.72,0-2.06-1.46-2.72-5.64-3.38-6.9-1.13-11.94-4-11.94-10.75,0-6.3,4.51-10.21,12.8-10.21,5.44,0,9.95,1.26,12.54,5.5Z"/><path d="M293,0h9.15V8.22H293Zm.33,12.6h8.49V45.77h-8.49Z"/><path d="M328.66,0h8.42V45.77h-8.42V43.84a9.89,9.89,0,0,1-7.1,2.52c-8.69,0-13.13-6.16-13.13-15V26.86c0-9.68,5.24-14.85,13.13-14.85a10.55,10.55,0,0,1,7.1,2.32Zm0,30.84V26.66c0-4.84-1.92-7.49-5.9-7.49-4.18,0-5.91,2.92-5.91,8.22v3.45c0,4.78,1.33,8.36,5.91,8.36C327.53,39.2,328.66,35.62,328.66,30.84Z"/><path d="M369.59,40.73c-2.33,4-6.17,5.63-12.14,5.63-9.95,0-14.73-6.43-14.73-15V26.86c0-10,5-14.85,13.67-14.85,9.35,0,13.66,5.43,13.66,15.52v3.78h-18.9c.06,4.57,1.52,7.89,6.23,7.89,3.52,0,4.64-1.06,5.9-2.85ZM351.15,25.27h10.41c-.2-4.31-1.92-6.1-5.11-6.1C353.07,19.17,351.48,21.49,351.15,25.27Z"/><path d="M376.15,12.6h8.29v2.79A9.55,9.55,0,0,1,392.07,12c6.7,0,12.14,3.18,12.14,13V45.77h-8.42V26.33c0-5.17-1.86-7-5.31-7-3.92,0-5.84,2.59-5.84,7v19.5h-8.49Z"/><path d="M408.59,12.6h4.24V5.31h8.42V12.6h6.51v7.17h-6.51V33.63c0,3.32.67,4.71,3.79,4.71h2.72v7.43h-3.59c-8,0-11.34-2.26-11.34-10.81V19.77h-4.24Z"/></g></g></svg>