<svg xmlns="http://www.w3.org/2000/svg" viewBox="0 0 491.08 58.37"><defs><style>.cls-1{fill:#ff7171;}</style></defs><title>entrepreneurship</title><g id="レイヤー_2" data-name="レイヤー 2"><g id="レイヤー_1-2" data-name="レイヤー 1"><path class="cls-1" d="M37.81,0,36,9.15H18.11l-1.59,8.36H32.44l-1.8,9.15H14.73l-1.93,10H30.71l-1.79,9.16H0L8.89,0Z"/><path class="cls-1" d="M40,12.6h9.68l-.33,2a12.19,12.19,0,0,1,8.09-2.65c6,0,10.88,3.65,9,13.27l-4,20.56H52.53L56.11,27.2c.93-4.78.34-6.77-3-6.77-3.65,0-5.17,2.52-6,6.7L43.51,45.77H33.56Z"/><path class="cls-1" d="M72.56,12.6h4.25L78.2,5.31h10L86.76,12.6h6L91.07,21h-6l-2.39,12.4c-.53,2.66,0,3.78,2.46,3.78H88l-1.66,8.63H82.38c-7.89,0-11.47-2.92-9.88-11.15L75.15,21H70.91Z"/><path class="cls-1" d="M113.29,22.82a3.11,3.11,0,0,0-3-2.39c-2.85,0-4.9,2-5.77,6.43l-3.64,18.91h-10L97.37,12.6h9.68l-.39,2.19a10.93,10.93,0,0,1,7.49-2.85c3.78,0,6.24,2.39,7.43,5.7Z"/><path class="cls-1" d="M146.06,40.86c-3.25,4-7.1,5.57-13.6,5.57-10.35,0-13.53-7.56-12.07-15l.92-4.64c2.06-10.28,7.17-14.86,16.79-14.86s12.6,6.5,10.87,15.85l-.73,3.92h-18c-.6,3.78-.13,6.36,3.91,6.36,3.12,0,3.92-.93,5.44-2.45Zm-14.4-15.79h7.9c.46-3.65-.67-4.77-3-4.77C134,20.3,132.52,22.09,131.66,25.07Z"/><path class="cls-1" d="M182.74,31.44c-1.8,9.49-7.3,15-15.66,15-3,0-5-.66-6.17-1.59l-2.65,13.53h-9.95L157.2,12.6h10L166.88,14a11.62,11.62,0,0,1,7.1-2.05c7.36,0,11.28,5.84,9.62,14.86Zm-9.82-.86.6-2.92c1-4.91.39-7.36-3.19-7.36s-5.17,2.45-6.1,7.36l-.73,3.91c-.73,3.85-.53,6.5,3.32,6.5C170.93,38.07,172.06,35,172.92,30.58Z"/><path class="cls-1" d="M207.28,22.82a3.11,3.11,0,0,0-3-2.39c-2.85,0-4.91,2-5.77,6.43l-3.65,18.91h-10l6.44-33.17H201l-.4,2.19a11,11,0,0,1,7.5-2.85c3.78,0,6.23,2.39,7.43,5.7Z"/><path class="cls-1" d="M240,40.86c-3.25,4-7.09,5.57-13.59,5.57-10.35,0-13.54-7.56-12.08-15l.93-4.64c2.06-10.28,7.17-14.86,16.78-14.86s12.61,6.5,10.88,15.85l-.73,3.92h-18c-.6,3.78-.14,6.36,3.91,6.36,3.12,0,3.91-.93,5.44-2.45ZM225.65,25.07h7.89c.47-3.65-.66-4.77-3-4.77C228,20.3,226.51,22.09,225.65,25.07Z"/><path class="cls-1" d="M251.19,12.6h9.68l-.33,2a12.19,12.19,0,0,1,8.09-2.65c6,0,10.88,3.65,9,13.27l-4,20.56h-9.95L267.3,27.2c.93-4.78.34-6.77-3-6.77-3.65,0-5.17,2.52-6,6.7L254.7,45.77h-9.95Z"/><path class="cls-1" d="M307.1,40.86c-3.25,4-7.1,5.57-13.6,5.57-10.34,0-13.53-7.56-12.07-15l.93-4.64c2.06-10.28,7.16-14.86,16.78-14.86s12.6,6.5,10.88,15.85l-.73,3.92h-18c-.59,3.78-.13,6.36,3.92,6.36,3.12,0,3.91-.93,5.44-2.45ZM292.71,25.07h7.89c.46-3.65-.66-4.77-3-4.77C295,20.3,293.57,22.09,292.71,25.07Z"/><path class="cls-1" d="M340.73,45.77H331l.4-2.19c-1.73,2-3.45,2.85-7.5,2.85-6,0-11.54-3.71-9.68-13.13l4-20.7h9.95l-3.65,18.84c-.86,4.51-.19,6.5,3.12,6.5s5-1.86,5.84-6.43l3.65-18.91h10Z"/><path class="cls-1" d="M369.05,22.82a3.11,3.11,0,0,0-3-2.39c-2.86,0-4.91,2-5.77,6.43l-3.65,18.91H346.7l6.43-33.17h9.69l-.4,2.19a11,11,0,0,1,7.49-2.85c3.78,0,6.24,2.39,7.43,5.7Z"/><path class="cls-1" d="M396.71,22.75c-.93-1.46-2.12-2.32-5.17-2.32-1.53,0-3.45.33-3.45,2,0,.93,1,1.46,3.65,2,7.43,1.46,10.54,5,10.54,10.08,0,7.5-5.7,11.94-15.59,11.94-6.76,0-10.54-1.79-12.8-5.7l8.49-5.38c.87,1.53,2,2.59,5.77,2.59,2.39,0,3.92-.66,3.92-2.06,0-1.06-1.13-1.52-3.85-2.12-6.3-1.46-10.35-4.71-10.35-9.95,0-7.1,5.31-11.87,15.52-11.87,5.44,0,9.62,1.52,11.55,5.64Z"/><path class="cls-1" d="M414,0h10l-2.72,14.26a12.76,12.76,0,0,1,7.89-2.32c5.77,0,10.74,3.71,8.95,13l-4,20.83H424l3.65-18.91c.86-4.44.2-6.43-3-6.43-3.45,0-5.17,2.12-6,6.37l-3.71,19h-9.95Z"/><path class="cls-1" d="M447.39,12.6h9.94L450.9,45.77H441ZM449.51,0h10.61l-1.79,9.29H447.72Z"/><path class="cls-1" d="M489.84,31.44c-1.8,9.49-7.3,15-15.66,15-3,0-5-.66-6.17-1.59l-2.65,13.53h-9.95L464.3,12.6h9.95L474,14a11.62,11.62,0,0,1,7.1-2.05c7.36,0,11.28,5.84,9.62,14.86ZM480,30.58l.6-2.92c1-4.91.39-7.36-3.19-7.36s-5.17,2.45-6.1,7.36l-.73,3.91c-.73,3.85-.53,6.5,3.32,6.5C478,38.07,479.16,35,480,30.58Z"/></g></g></svg>