<svg xmlns="http://www.w3.org/2000/svg" viewBox="0 0 174.7 47.09"><defs><style>.cls-1{fill:#ff7171;}</style></defs><title>global</title><g id="レイヤー_2" data-name="レイヤー 2"><g id="レイヤー_1-2" data-name="レイヤー 1"><path class="cls-1" d="M36.33,22.22l-.92,4.91c-2.59,13.53-8.36,20-20.7,20C4.63,47.09-1.94,40,.52,27.13l1.19-6.24C4.56,6.17,12.12,0,23.86,0c9.89,0,14.07,6.63,13.93,14.79H27.31c.14-2.85-1.26-5.64-5.24-5.64-4.57,0-7.69,3.32-9.15,10.81l-1.39,7.17c-1.46,7.49.33,10.81,4.9,10.81s6.64-2.72,7.63-6.57H18l1.72-9.15Z"/><path class="cls-1" d="M46.48.66h10L50.06,33.43c-.73,3.58.6,4.51,3.25,4.51l-1.59,8.49c-8.89,0-13.66-2.45-11.87-11.61Z"/><path class="cls-1" d="M88.14,31.71c-1.79,9.61-6.5,15.38-17.58,15.38-9.42,0-13.4-6.7-11.61-15.38l.8-3.92c2-9.75,7.09-15.19,17.51-15.19,9.42,0,13.13,5.71,11.61,15.26Zm-9.82-.47.53-2.92c.93-4.91.4-7.36-3.18-7.36s-5.18,2.45-6.11,7.36L69,31.24c-.79,4.38-.93,7.5,3.19,7.5S77.52,35.62,78.32,31.24Z"/><path class="cls-1" d="M105.78,14.33a11.39,11.39,0,0,1,6.57-1.73c7.82,0,11.8,5.84,10,15.26l-.73,3.85c-1.92,10.21-7.36,15.38-16,15.38a7.33,7.33,0,0,1-5.84-2.32l-.26,1.66H90.26L99.15.66h9.28Zm6,16.91.53-2.92c.93-4.91.4-7.36-3.19-7.36s-5.1,2.19-6,6.63l-.66,3.65c-.8,4.38-.4,7.5,3.18,7.5C109.83,38.74,111,35.62,111.82,31.24Z"/><path class="cls-1" d="M138.21,26.2h5.91l.2-1c.66-3.25.26-4.52-4.38-4.52-2.85,0-4.25.54-5.77,2.26l-6.3-5c3.58-4.38,7.76-5.31,14.79-5.31,8.62,0,13.13,3.32,11.34,12.67l-4.11,21.16H140.2l.47-2.39c-1.39,1.66-3.52,3.05-7.56,3.05-5,0-9.36-3.11-9.36-9.15C123.75,30.38,129.53,26.2,138.21,26.2Zm4.58,7h-4.51c-3,0-4.58,1.13-4.58,3.58,0,1.59,1.26,2.46,3.52,2.46,3.32,0,4.78-2,5.37-5Z"/><path class="cls-1" d="M164.75.66h9.95l-6.37,32.77c-.73,3.58.59,4.51,3.25,4.51L170,46.43c-8.89,0-13.67-2.45-11.88-11.61Z"/></g></g></svg>