<svg width="327" height="47" viewBox="0 0 327 47" fill="none" xmlns="http://www.w3.org/2000/svg">
<rect width="326.01" height="46.39" fill="black" fill-opacity="0"/>
<rect width="326.01" height="46.39" fill="black" fill-opacity="0"/>
<rect width="326.01" height="46.39" fill="black" fill-opacity="0"/>
<path d="M9.29 18.17H25.14V0H34.42V45.77H25.14V26H9.29V45.77H0V0H9.29V18.17Z" fill="white"/>
<path d="M69.8399 31.11C69.8399 40.2 65.5299 46.37 55.5199 46.37C45.8999 46.37 41.1899 40.37 41.1899 31.11V27.11C41.1899 17.18 46.4299 12 55.5199 12C64.6099 12 69.8399 17.17 69.8399 27.12V31.11ZM61.4199 30.84V27.39C61.4199 22.09 59.6999 19.17 55.5199 19.17C51.3399 19.17 49.6099 22.09 49.6099 27.39V30.84C49.6099 35.62 50.8099 39.2 55.5199 39.2C60.2299 39.2 61.4199 35.62 61.4199 30.84Z" fill="white"/>
<path d="M88.35 45.77H81.45L72.3 12.6H81.05L85.76 31.6L92.46 12.6H98.7L105.86 31.6L110.57 12.6H119.39L110.17 45.77H103.34L95.85 25L88.35 45.77Z" fill="white"/>
<path d="M152.42 45.77H145.53L136.37 12.6H145.13L149.84 31.6L156.54 12.6H162.77L169.93 31.6L174.64 12.6H183.47L174.25 45.77H167.41L159.92 25L152.42 45.77Z" fill="white"/>
<path d="M212.72 40.73C210.39 44.73 206.55 46.37 200.58 46.37C190.58 46.37 185.85 39.93 185.85 31.37V26.86C185.85 16.86 190.85 12.01 199.52 12.01C208.87 12.01 213.18 17.45 213.18 27.53V31.31H194.28C194.34 35.88 195.8 39.2 200.51 39.2C204.03 39.2 205.15 38.14 206.42 36.35L212.72 40.73ZM194.28 25.27H204.69C204.49 20.96 202.77 19.17 199.58 19.17C196.2 19.17 194.61 21.49 194.28 25.27Z" fill="white"/>
<path d="M253.84 21.8199C253.426 21.0699 252.821 20.4422 252.088 19.9998C251.354 19.5575 250.517 19.3161 249.66 19.2999C246.48 19.2999 244.36 21.6199 244.36 26.2999V45.7999H235.87V12.5999H244.16V15.3899C245.28 13.7299 247.47 12.0099 251.39 12.0099C253.218 11.9392 255.028 12.3871 256.612 13.302C258.196 14.2169 259.488 15.5613 260.34 17.1799L253.84 21.8199Z" fill="white"/>
<path d="M291.12 45.77H282.83V43C281.43 45.26 279.64 46.39 275.26 46.39C268.56 46.39 263.06 43.07 263.06 33.32V12.6H271.55V32C271.55 37.24 273.41 39 276.92 39C280.84 39 282.69 36.61 282.69 32V12.6H291.12V45.77Z" fill="white"/>
<path d="M298 12.6001H306.29V15.3901C307.216 14.2903 308.379 13.4141 309.692 12.8271C311.004 12.2401 312.433 11.9573 313.87 12.0001C320.57 12.0001 326.01 15.1801 326.01 25.0001V45.7701H317.58V26.3301C317.58 21.1601 315.72 19.3301 312.28 19.3301C308.36 19.3301 306.44 21.9201 306.44 26.3301V45.8301H298V12.6001Z" fill="white"/>
</svg>
