<svg xmlns="http://www.w3.org/2000/svg" viewBox="0 0 494.48 414.46"><defs><style>.cls-1{fill:#231815;}</style></defs><title>interview</title><g id="レイヤー_2" data-name="レイヤー 2"><g id="レイヤー_1-2" data-name="レイヤー 1"><path class="cls-1" d="M71.51,111.15A44.27,44.27,0,1,0,34.63,91.22,44,44,0,0,0,71.51,111.15Z"/><path class="cls-1" d="M493.23,211.57H479.79a1.25,1.25,0,0,0-1.26,1.26v99.51H442.27c16.18-17.62,18.35-50.57,20.41-82.73,1.18-18.27,1.72-36.15,2-47.82a63.77,63.77,0,0,1-74.32,3.46c-.81,33.68-3.3,66.4-6.11,79.49a37.37,37.37,0,0,0-5.9,10.46c-38.75.15-44.71,5.86-48.49,9.5a20,20,0,0,0-6.32,14.53c-.12,5.49-4.58,53-8.73,94.83a18.59,18.59,0,0,0,16.64,20.31c.62.05,1.24.09,1.85.09a18.55,18.55,0,0,0,18.44-16.74c1.62-16.25,6.05-61.23,8-84.6,5.05-.4,11.73-.62,19.09-.68a1.2,1.2,0,0,0-1,1.14v94.07A1.24,1.24,0,0,0,379,408.9h15.13a1.24,1.24,0,0,0,1.24-1.25V328.28h81.46v79.37a1.25,1.25,0,0,0,1.27,1.25h15.11a1.23,1.23,0,0,0,1.25-1.25V212.83A1.25,1.25,0,0,0,493.23,211.57Z"/><path class="cls-1" d="M296.25,164.77s0-.07-.05-.09h0s-.11,0-.15,0-.15-.15-.25-.17l-35.37-8.85a15.48,15.48,0,0,0,1-4.53,15.23,15.23,0,0,0-14.57-15.87c-18.31-.79-32.07-31.76-35.45-42.53a15.86,15.86,0,0,0-.88-2.11c-.89.58-1.81,1.1-2.73,1.65a54.87,54.87,0,0,1-25.92,7.35c-.58,0-1.13.09-1.71.09A55.38,55.38,0,0,1,139,81.32a405.71,405.71,0,0,0-6,54.18c-.61,16.89.37,31.77,2.86,44.75L97.11,190.66c-3-15.24-2.21-45.86,3.81-76.69a55.17,55.17,0,0,1-69.24-8.4,402.07,402.07,0,0,0-5.76,52.74c-.7,19.4.7,36.18,4.09,50.4l-16.44,4.42c-.18,0-.35-.15-.54-.09L.78,216.59a.51.51,0,0,0-.23.15s-.1,0-.14,0,0,.07,0,.11l0,0s-.08,0-.1.08a1.11,1.11,0,0,0-.22.65V334.93a1.05,1.05,0,0,0,.43.88,1.05,1.05,0,0,0,.65.23,2.53,2.53,0,0,0,.3,0l12.25-3.56a1.07,1.07,0,0,0,.79-1V299.89l37.82,9.45V348a1.11,1.11,0,0,0,.44.86,1.07,1.07,0,0,0,.65.23c.11,0,.2,0,.31,0l12.25-3.54a1.12,1.12,0,0,0,.77-1.06V306l215.53-58V286.4a1.11,1.11,0,0,0,.44.87,1,1,0,0,0,.65.22,1.55,1.55,0,0,0,.31,0l12.25-3.53a1.08,1.08,0,0,0,.78-1.07V165.54h0A1.05,1.05,0,0,0,296.25,164.77Zm-93.74-24a73.57,73.57,0,0,0,17.86,16.72l-17.09,4.59A161.9,161.9,0,0,1,202.51,140.8Z"/><path class="cls-1" d="M180.13,88.35a39.28,39.28,0,0,0,4.5-.25,43.74,43.74,0,0,0,17-5.33,44.55,44.55,0,0,0,8.22-6,44,44,0,1,0-29.67,11.56Z"/><path class="cls-1" d="M425.06,182.42a51.27,51.27,0,1,0-34.47-13.48A51.13,51.13,0,0,0,425.06,182.42Z"/></g></g></svg>