<svg xmlns="http://www.w3.org/2000/svg" viewBox="0 0 466.95 59.37"><title>ongoingprojects</title><g id="レイヤー_2" data-name="レイヤー 2"><g id="レイヤー_1-2" data-name="レイヤー 1"><path d="M17.51,47C7.23,47,0,40.73,0,26.73v-6.5C0,6.1,7.23,0,17.51,0S35.09,6.1,35.09,20.23v6.5C35.09,40.73,27.86,47,17.51,47ZM9.29,26.73c0,8.76,2.85,12.4,8.22,12.4s8.29-3.64,8.29-12.4v-6.5c0-8.75-2.92-12.4-8.29-12.4s-8.22,3.65-8.22,12.4Z"/><path d="M41.59,13.2h8.29V16a9.54,9.54,0,0,1,7.63-3.39c6.7,0,12.13,3.19,12.13,13V46.37H61.22V26.93c0-5.17-1.86-7-5.31-7-3.91,0-5.83,2.59-5.83,7V46.37H41.59Z"/><path d="M95.51,13.2h8.43V45.7c0,11.08-6.24,13.67-14.6,13.67-6.17,0-10.08-1.46-13-6l5.71-4.12c1.46,2,3.38,3,6.5,3,5,0,7-1.46,7-6.57V44.64A10.47,10.47,0,0,1,88.42,47c-8.69,0-13.14-6.17-13.14-15V27.46c0-9.68,5.24-14.86,13.14-14.86a10.52,10.52,0,0,1,7.09,2.32Zm0,19V28c0-5.3-1.72-8.22-5.9-8.22s-5.9,2.92-5.9,8.22v3.45c0,4.78,1.32,8.36,5.9,8.36S95.51,36.55,95.51,32.17Z"/><path d="M138.23,31.71c0,9.08-4.31,15.25-14.33,15.25-9.62,0-14.33-6-14.33-15.25v-4c0-9.95,5.24-15.13,14.33-15.13s14.33,5.18,14.33,15.13Zm-8.43-.27V28c0-5.3-1.72-8.22-5.9-8.22S118,22.69,118,28v3.45c0,4.78,1.19,8.36,5.9,8.36S129.8,36.22,129.8,31.44Z"/><path d="M144.53.6h9.15V8.82h-9.15Zm.33,12.6h8.49V46.37h-8.49Z"/><path d="M161.11,13.2h8.29V16A9.56,9.56,0,0,1,177,12.6c6.7,0,12.14,3.19,12.14,13V46.37h-8.42V26.93c0-5.17-1.86-7-5.31-7-3.91,0-5.84,2.59-5.84,7V46.37h-8.49Z"/><path d="M215,13.2h8.42V45.7c0,11.08-6.23,13.67-14.59,13.67-6.17,0-10.08-1.46-13-6l5.7-4.12c1.46,2,3.39,3,6.5,3,5,0,7-1.46,7-6.57V44.64a10.5,10.5,0,0,1-7.1,2.32c-8.69,0-13.13-6.17-13.13-15V27.46c0-9.68,5.24-14.86,13.13-14.86a10.55,10.55,0,0,1,7.1,2.32Zm0,19V28c0-5.3-1.73-8.22-5.91-8.22s-5.9,2.92-5.9,8.22v3.45c0,4.78,1.33,8.36,5.9,8.36S215,36.55,215,32.17Z"/><path d="M275.6,32c0,8.62-4.38,15-12.94,15-3.45,0-5.77-.66-7.29-1.92V59h-8.49V13.2h8.49v2.19c1.59-1.79,4-2.79,7.36-2.79,7.69,0,12.87,5.38,12.87,14.86Zm-8.49-.53V28c0-5.3-1.66-8.22-5.84-8.22s-5.9,2.65-5.9,7.49v4.18c0,4.78,1.12,8.36,5.9,8.36C265.85,39.8,267.11,36.22,267.11,31.44Z"/><path d="M299.14,22.42A4.88,4.88,0,0,0,295,19.9c-3.18,0-5.3,2.32-5.3,7V46.37h-8.49V13.2h8.29V16c1.13-1.66,3.32-3.39,7.23-3.39a9.7,9.7,0,0,1,8.95,5.18Z"/><path d="M335.82,31.71c0,9.08-4.31,15.25-14.32,15.25-9.62,0-14.33-6-14.33-15.25v-4c0-9.95,5.24-15.13,14.33-15.13s14.32,5.18,14.32,15.13Zm-8.42-.27V28c0-5.3-1.73-8.22-5.9-8.22s-5.91,2.92-5.91,8.22v3.45c0,4.78,1.2,8.36,5.91,8.36S327.4,36.22,327.4,31.44Z"/><path d="M351,48.16C351,56.65,346.9,59,338.08,59v-7.3c3.51,0,4.44-1.59,4.44-4.71V13.2H351ZM342.19.6h9.09V8.82h-9.09Z"/><path d="M383.78,41.32c-2.32,4-6.17,5.64-12.14,5.64-9.95,0-14.73-6.43-14.73-15V27.46c0-10,5-14.86,13.67-14.86,9.35,0,13.66,5.44,13.66,15.53v3.78h-18.9c.06,4.57,1.52,7.89,6.23,7.89,3.52,0,4.65-1.06,5.91-2.85ZM365.34,25.87h10.41c-.2-4.31-1.92-6.1-5.11-6.1C367.26,19.77,365.67,22.09,365.34,25.87Z"/><path d="M416,41.32c-2.32,3.92-6.1,5.64-12.07,5.64-9.48,0-14.79-6-14.79-15V27.46c0-9.68,5.37-14.86,15.26-14.86,5.1,0,9.28,1.86,11.6,5.51l-6.36,4.44a6.27,6.27,0,0,0-5.44-2.78c-4.78,0-6.64,2.92-6.64,8.22v3.45c0,4.78,1.26,8.36,6.64,8.36a5.82,5.82,0,0,0,5.5-2.85Z"/><path d="M417.47,13.2h4.25V5.9h8.42v7.3h6.5v7.16h-6.5V34.23c0,3.31.66,4.71,3.78,4.71h2.72v7.43h-3.58c-8,0-11.34-2.26-11.34-10.82V20.36h-4.25Z"/><path d="M460.06,22.55c-1.46-1.72-2.92-2.65-6.5-2.65-2.19,0-4.18.66-4.18,2.59s1.79,2.72,5.3,3.25C462.84,27,467,30.11,467,36.68,467,43.05,462.51,47,454,47c-6.76,0-10.87-1.66-13.73-5.5l6.5-4.65c1.33,1.79,3,2.86,7.1,2.86,2.92,0,4.71-1,4.71-2.72,0-2.06-1.46-2.72-5.64-3.39C446,32.44,441,29.52,441,22.82c0-6.3,4.51-10.22,12.8-10.22,5.44,0,9.95,1.26,12.54,5.51Z"/></g></g></svg>