<svg xmlns="http://www.w3.org/2000/svg" viewBox="0 0 287.4 46.96"><title>ourvision</title><g id="レイヤー_2" data-name="レイヤー 2"><g id="レイヤー_1-2" data-name="レイヤー 1"><path d="M17.51,47C7.23,47,0,40.73,0,26.73v-6.5C0,6.1,7.23,0,17.51,0S35.09,6.1,35.09,20.23v6.5C35.09,40.73,27.86,47,17.51,47ZM9.29,26.73c0,8.76,2.85,12.4,8.22,12.4s8.29-3.64,8.29-12.4v-6.5c0-8.75-2.92-12.4-8.29-12.4s-8.22,3.65-8.22,12.4Z"/><path d="M69.65,46.36h-8.3V43.58C60,45.83,58.17,47,53.79,47c-6.7,0-12.2-3.31-12.2-13.07V13.2h8.49V32.63c0,5.24,1.86,7,5.37,7,3.91,0,5.77-2.39,5.77-7V13.2h8.43Z"/><path d="M94.45,22.42a4.88,4.88,0,0,0-4.18-2.52c-3.18,0-5.3,2.32-5.3,7v19.5H76.48V13.2h8.29V16C85.9,14.33,88.08,12.6,92,12.6a9.7,9.7,0,0,1,9,5.18Z"/><path d="M127.22.6l10,30.77L147.25.6H157.4L141.48,46.36h-8.43L117.07.6Z"/><path d="M161.64.6h9.16V8.82h-9.16ZM162,13.2h8.49V46.36H162Z"/><path d="M196.4,22.55c-1.46-1.72-2.92-2.65-6.5-2.65-2.19,0-4.18.66-4.18,2.59s1.79,2.72,5.31,3.25c8.16,1.26,12.27,4.37,12.27,10.94,0,6.37-4.45,10.28-13,10.28-6.77,0-10.88-1.66-13.73-5.5l6.5-4.65c1.32,1.79,3,2.86,7.09,2.86,2.92,0,4.71-1,4.71-2.72,0-2.06-1.46-2.72-5.64-3.39-6.89-1.12-11.93-4-11.93-10.74,0-6.3,4.51-10.22,12.8-10.22,5.44,0,10,1.26,12.53,5.51Z"/><path d="M209.66.6h9.16V8.82h-9.16ZM210,13.2h8.49V46.36H210Z"/><path d="M253.71,31.71c0,9.08-4.31,15.25-14.33,15.25-9.62,0-14.33-6-14.33-15.25v-4c0-9.95,5.24-15.13,14.33-15.13s14.33,5.18,14.33,15.13Zm-8.43-.27V28c0-5.3-1.72-8.22-5.9-8.22s-5.9,2.92-5.9,8.22v3.45c0,4.78,1.19,8.36,5.9,8.36S245.28,36.22,245.28,31.44Z"/><path d="M259.34,13.2h8.3V16a9.53,9.53,0,0,1,7.62-3.39c6.7,0,12.14,3.19,12.14,13V46.36H279V26.93c0-5.17-1.86-7-5.31-7-3.91,0-5.84,2.59-5.84,7v19.5h-8.49Z"/></g></g></svg>