<svg xmlns="http://www.w3.org/2000/svg" viewBox="0 0 516.96 46.96"><title>overseaspartners_1</title><g id="レイヤー_2" data-name="レイヤー 2"><g id="レイヤー_1-2" data-name="レイヤー 1"><path d="M17.51,47C7.23,47,0,40.73,0,26.73v-6.5C0,6.1,7.23,0,17.51,0S35.09,6.1,35.09,20.23v6.5C35.09,40.73,27.86,47,17.51,47ZM9.29,26.73c0,8.76,2.85,12.4,8.22,12.4s8.29-3.64,8.29-12.4v-6.5c0-8.75-2.92-12.4-8.29-12.4s-8.22,3.65-8.22,12.4Z"/><path d="M71.63,13.2,59,46.37h-8L38.2,13.2h9.29l7.43,21.49L62.28,13.2Z"/><path d="M100.69,41.32c-2.32,4-6.17,5.64-12.14,5.64-10,0-14.73-6.43-14.73-15V27.46c0-10,5-14.86,13.67-14.86,9.35,0,13.66,5.44,13.66,15.53v3.78H82.25c.06,4.57,1.52,7.89,6.23,7.89,3.52,0,4.65-1.06,5.9-2.85ZM82.25,25.87H92.66c-.2-4.31-1.92-6.1-5.11-6.1C84.17,19.77,82.58,22.09,82.25,25.87Z"/><path d="M125.23,22.42a4.9,4.9,0,0,0-4.18-2.52c-3.18,0-5.31,2.32-5.31,7V46.37h-8.49V13.2h8.29V16c1.13-1.66,3.32-3.39,7.23-3.39a9.71,9.71,0,0,1,9,5.18Z"/><path d="M152.62,22.55c-1.46-1.72-2.92-2.65-6.5-2.65-2.19,0-4.18.66-4.18,2.59s1.79,2.72,5.31,3.25c8.16,1.26,12.27,4.37,12.27,10.94,0,6.37-4.44,10.28-13,10.28-6.77,0-10.88-1.66-13.73-5.5l6.5-4.65c1.33,1.79,3,2.86,7.1,2.86,2.91,0,4.71-1,4.71-2.72,0-2.06-1.46-2.72-5.64-3.39-6.9-1.12-11.94-4-11.94-10.74,0-6.3,4.51-10.22,12.8-10.22,5.44,0,10,1.26,12.54,5.51Z"/><path d="M190.89,41.32c-2.32,4-6.17,5.64-12.14,5.64C168.81,47,164,40.53,164,32V27.46c0-10,5-14.86,13.66-14.86,9.36,0,13.67,5.44,13.67,15.53v3.78H172.45c.07,4.57,1.53,7.89,6.24,7.89,3.51,0,4.64-1.06,5.9-2.85ZM172.45,25.87h10.42c-.2-4.31-1.93-6.1-5.11-6.1C174.38,19.77,172.79,22.09,172.45,25.87Z"/><path d="M208.07,26.47h6.57V24.54c0-3.71-1.13-4.91-5.9-4.91-3.25,0-4.85.47-6.24,2.66l-6-4.18c2.45-4,6.17-5.51,13-5.51,8.56,0,13.4,2.52,13.4,12V46.37h-8.29V43.45c-1.33,2.25-3.32,3.51-7.17,3.51-6.89,0-11.67-3.65-11.67-10.41C195.8,29.52,201.11,26.47,208.07,26.47Zm6.57,6.23h-5.57c-3.45,0-5,1.13-5,3.72s1.93,3.71,4.84,3.71c3.85,0,5.71-1.66,5.71-6.17Z"/><path d="M247.87,22.55c-1.46-1.72-2.92-2.65-6.5-2.65-2.19,0-4.18.66-4.18,2.59s1.79,2.72,5.31,3.25c8.16,1.26,12.27,4.37,12.27,10.94,0,6.37-4.45,10.28-13,10.28C235,47,230.89,45.3,228,41.46l6.5-4.65c1.32,1.79,3,2.86,7.09,2.86,2.92,0,4.71-1,4.71-2.72,0-2.06-1.46-2.72-5.63-3.39-6.9-1.12-11.94-4-11.94-10.74,0-6.3,4.51-10.22,12.8-10.22,5.44,0,10,1.26,12.54,5.51Z"/><path d="M287.47,30.25V46.37h-9.29V.6h16.39c10.54,0,17.11,4.84,17.11,14.66s-6.5,15-17.11,15Zm5.77-7.83c6.43,0,9.15-2.25,9.15-7.16,0-4.38-2.72-6.77-9.15-6.77h-5.77V22.42Z"/><path d="M326.8,26.47h6.57V24.54c0-3.71-1.13-4.91-5.91-4.91-3.25,0-4.84.47-6.23,2.66l-6-4.18c2.45-4,6.17-5.51,13-5.51,8.56,0,13.4,2.52,13.4,12V46.37h-8.29V43.45C332,45.7,330.05,47,326.2,47c-6.89,0-11.67-3.65-11.67-10.41C314.53,29.52,319.84,26.47,326.8,26.47Zm6.57,6.23H327.8c-3.45,0-5,1.13-5,3.72s1.93,3.71,4.84,3.71c3.85,0,5.71-1.66,5.71-6.17Z"/><path d="M366.4,22.42a4.9,4.9,0,0,0-4.18-2.52c-3.18,0-5.31,2.32-5.31,7V46.37h-8.49V13.2h8.3V16c1.12-1.66,3.31-3.39,7.23-3.39a9.7,9.7,0,0,1,8.95,5.18Z"/><path d="M373.16,13.2h4.25V5.9h8.42v7.3h6.5v7.16h-6.5V34.23c0,3.31.67,4.71,3.78,4.71h2.72v7.43h-3.58c-8,0-11.34-2.26-11.34-10.82V20.36h-4.25Z"/><path d="M397.57,13.2h8.29V16a9.57,9.57,0,0,1,7.63-3.39c6.7,0,12.14,3.19,12.14,13V46.37h-8.42V26.93c0-5.17-1.86-7-5.31-7-3.91,0-5.84,2.59-5.84,7V46.37h-8.49Z"/><path d="M458.13,41.32C455.81,45.37,452,47,446,47c-9.95,0-14.72-6.43-14.72-15V27.46c0-10,5-14.86,13.66-14.86,9.35,0,13.67,5.44,13.67,15.53v3.78H439.69c.07,4.57,1.53,7.89,6.24,7.89,3.51,0,4.64-1.06,5.9-2.85ZM439.69,25.87h10.42c-.2-4.31-1.93-6.1-5.11-6.1C441.62,19.77,440,22.09,439.69,25.87Z"/><path d="M482.67,22.42a4.88,4.88,0,0,0-4.18-2.52c-3.18,0-5.3,2.32-5.3,7V46.37H464.7V13.2H473V16c1.13-1.66,3.31-3.39,7.23-3.39a9.7,9.7,0,0,1,8.95,5.18Z"/><path d="M510.07,22.55c-1.46-1.72-2.92-2.65-6.5-2.65-2.19,0-4.18.66-4.18,2.59s1.79,2.72,5.3,3.25C512.85,27,517,30.11,517,36.68,517,43.05,512.52,47,504,47c-6.76,0-10.87-1.66-13.73-5.5l6.5-4.65c1.33,1.79,3,2.86,7.1,2.86,2.92,0,4.71-1,4.71-2.72,0-2.06-1.46-2.72-5.64-3.39C496,32.44,491,29.52,491,22.82c0-6.3,4.51-10.22,12.8-10.22,5.44,0,10,1.26,12.54,5.51Z"/></g></g></svg>