<svg xmlns="http://www.w3.org/2000/svg" viewBox="0 0 238.78 46.37"><title>Partners</title><g id="レイヤー_2" data-name="レイヤー 2"><g id="レイヤー_1-2" data-name="レイヤー 1"><path d="M9.29,29.65V45.77H0V0H16.38C26.93,0,33.5,4.84,33.5,14.66s-6.5,15-17.12,15Zm5.77-7.83c6.43,0,9.15-2.25,9.15-7.16,0-4.38-2.72-6.77-9.15-6.77H9.29V21.82Z"/><path d="M48.62,25.87h6.57V24c0-3.72-1.13-4.91-5.91-4.91-3.25,0-4.84.46-6.23,2.65l-6-4.18c2.45-4.05,6.17-5.5,13-5.5,8.55,0,13.4,2.52,13.4,12V45.77H55.19V42.85c-1.33,2.25-3.32,3.52-7.17,3.52-6.9,0-11.67-3.65-11.67-10.42C36.35,28.92,41.65,25.87,48.62,25.87Zm6.57,6.23H49.61c-3.44,0-5,1.13-5,3.72s1.92,3.71,4.84,3.71c3.85,0,5.71-1.65,5.71-6.17Z"/><path d="M88.22,21.82A4.9,4.9,0,0,0,84,19.3c-3.18,0-5.31,2.32-5.31,7v19.5H70.24V12.6h8.29v2.79C79.66,13.73,81.85,12,85.76,12a9.7,9.7,0,0,1,9,5.17Z"/><path d="M95,12.6h4.25V5.31h8.42V12.6h6.5v7.17h-6.5V33.63c0,3.32.66,4.71,3.78,4.71h2.72v7.43h-3.58c-8,0-11.34-2.26-11.34-10.81V19.77H95Z"/><path d="M119.39,12.6h8.29v2.79A9.55,9.55,0,0,1,135.31,12c6.7,0,12.14,3.18,12.14,13V45.77H139V26.33c0-5.17-1.86-7-5.31-7-3.92,0-5.84,2.59-5.84,7v19.5h-8.49Z"/><path d="M180,40.73c-2.32,4-6.17,5.64-12.14,5.64-9.95,0-14.72-6.44-14.72-15V26.86c0-10,5-14.85,13.66-14.85,9.35,0,13.66,5.44,13.66,15.52v3.78h-18.9c.07,4.57,1.53,7.89,6.23,7.89,3.52,0,4.65-1.06,5.91-2.85ZM161.51,25.27h10.41c-.2-4.31-1.92-6.1-5.1-6.1C163.43,19.17,161.84,21.49,161.51,25.27Z"/><path d="M204.49,21.82a4.88,4.88,0,0,0-4.18-2.52c-3.18,0-5.3,2.32-5.3,7v19.5h-8.49V12.6h8.29v2.79C195.93,13.73,198.12,12,202,12a9.69,9.69,0,0,1,9,5.17Z"/><path d="M231.88,22c-1.45-1.73-2.91-2.66-6.5-2.66-2.18,0-4.17.66-4.17,2.59s1.79,2.72,5.3,3.25c8.16,1.26,12.27,4.38,12.27,10.94,0,6.37-4.44,10.29-13,10.29-6.76,0-10.88-1.66-13.73-5.51l6.5-4.64c1.33,1.79,3,2.85,7.1,2.85,2.92,0,4.71-1,4.71-2.72,0-2.06-1.46-2.72-5.64-3.38-6.9-1.13-11.94-4-11.94-10.75,0-6.3,4.51-10.21,12.8-10.21,5.44,0,9.95,1.26,12.54,5.5Z"/></g></g></svg>