<svg xmlns="http://www.w3.org/2000/svg" viewBox="0 0 364.48 58.37"><title>pastprojects_1</title><g id="レイヤー_2" data-name="レイヤー 2"><g id="レイヤー_1-2" data-name="レイヤー 1"><path d="M9.29,29.65V45.77H0V0H16.38C26.93,0,33.5,4.84,33.5,14.66s-6.5,15-17.12,15Zm5.77-7.83c6.43,0,9.15-2.25,9.15-7.16,0-4.38-2.72-6.77-9.15-6.77H9.29V21.82Z"/><path d="M48.62,25.87h6.57V24c0-3.72-1.13-4.91-5.91-4.91-3.25,0-4.84.46-6.23,2.65l-6-4.18c2.45-4.05,6.17-5.5,13-5.5,8.55,0,13.4,2.52,13.4,12V45.77H55.19V42.85c-1.33,2.25-3.32,3.52-7.17,3.52-6.9,0-11.67-3.65-11.67-10.42C36.35,28.92,41.65,25.87,48.62,25.87Zm6.57,6.23H49.61c-3.44,0-5,1.13-5,3.72s1.92,3.71,4.84,3.71c3.85,0,5.71-1.65,5.71-6.17Z"/><path d="M88.42,22C87,20.23,85.5,19.3,81.92,19.3c-2.19,0-4.18.66-4.18,2.59s1.79,2.72,5.3,3.25c8.16,1.26,12.27,4.38,12.27,10.94,0,6.37-4.44,10.29-13,10.29-6.76,0-10.87-1.66-13.73-5.51l6.5-4.64c1.33,1.79,3,2.85,7.1,2.85,2.92,0,4.71-1,4.71-2.72,0-2.06-1.46-2.72-5.64-3.38-6.9-1.13-11.94-4-11.94-10.75,0-6.3,4.51-10.21,12.81-10.21,5.43,0,9.94,1.26,12.53,5.5Z"/><path d="M98.56,12.6h4.25V5.31h8.42V12.6h6.5v7.17h-6.5V33.63c0,3.32.67,4.71,3.78,4.71h2.72v7.43h-3.58c-8,0-11.34-2.26-11.34-10.81V19.77H98.56Z"/><path d="M150,29.65V45.77h-9.29V0h16.39c10.54,0,17.11,4.84,17.11,14.66s-6.5,15-17.11,15Zm5.77-7.83c6.43,0,9.15-2.25,9.15-7.16,0-4.38-2.72-6.77-9.15-6.77H150V21.82Z"/><path d="M196.67,21.82a4.91,4.91,0,0,0-4.18-2.52c-3.19,0-5.31,2.32-5.31,7v19.5h-8.49V12.6H187v2.79c1.13-1.66,3.32-3.38,7.23-3.38a9.7,9.7,0,0,1,9,5.17Z"/><path d="M233.34,31.11c0,9.09-4.31,15.26-14.32,15.26-9.62,0-14.33-6-14.33-15.26v-4C204.69,17.18,209.93,12,219,12s14.32,5.17,14.32,15.12Zm-8.42-.27V27.39c0-5.3-1.72-8.22-5.9-8.22s-5.91,2.92-5.91,8.22v3.45c0,4.78,1.2,8.36,5.91,8.36S224.92,35.62,224.92,30.84Z"/><path d="M248.47,47.56c0,8.49-4.05,10.81-12.87,10.81v-7.3c3.52,0,4.44-1.59,4.44-4.7V12.6h8.43ZM239.71,0h9.09V8.22h-9.09Z"/><path d="M281.3,40.73c-2.32,4-6.17,5.64-12.14,5.64-10,0-14.72-6.44-14.72-15V26.86c0-10,5-14.85,13.66-14.85,9.35,0,13.66,5.44,13.66,15.52v3.78h-18.9c.07,4.57,1.53,7.89,6.24,7.89,3.51,0,4.64-1.06,5.9-2.85ZM262.86,25.27h10.41c-.19-4.31-1.92-6.1-5.1-6.1C264.78,19.17,263.19,21.49,262.86,25.27Z"/><path d="M313.54,40.73c-2.33,3.91-6.11,5.64-12.08,5.64-9.48,0-14.79-6-14.79-15V26.86C286.67,17.18,292,12,301.93,12c5.11,0,9.28,1.85,11.61,5.5L307.17,22a6.25,6.25,0,0,0-5.44-2.79c-4.78,0-6.63,2.92-6.63,8.22v3.45c0,4.78,1.26,8.36,6.63,8.36a5.82,5.82,0,0,0,5.5-2.85Z"/><path d="M315,12.6h4.24V5.31h8.42V12.6h6.51v7.17h-6.51V33.63c0,3.32.67,4.71,3.79,4.71h2.72v7.43h-3.59c-8,0-11.34-2.26-11.34-10.81V19.77H315Z"/><path d="M357.58,22c-1.46-1.73-2.92-2.66-6.5-2.66-2.19,0-4.18.66-4.18,2.59s1.79,2.72,5.31,3.25c8.16,1.26,12.27,4.38,12.27,10.94,0,6.37-4.45,10.29-13,10.29-6.77,0-10.88-1.66-13.73-5.51l6.5-4.64c1.32,1.79,3,2.85,7.09,2.85,2.92,0,4.71-1,4.71-2.72,0-2.06-1.46-2.72-5.63-3.38-6.9-1.13-11.94-4-11.94-10.75,0-6.3,4.51-10.21,12.8-10.21,5.44,0,10,1.26,12.53,5.5Z"/></g></g></svg>