<svg xmlns="http://www.w3.org/2000/svg" viewBox="0 0 244.54 46.43"><defs><style>.cls-1{fill:#ff7171;}</style></defs><title>platform</title><g id="レイヤー_2" data-name="レイヤー 2"><g id="レイヤー_1-2" data-name="レイヤー 1"><path class="cls-1" d="M14,30.31,11,45.77H0L8.89,0H26.13c9.16,0,14.8,4.71,14.8,12.8,0,11.28-8,17.51-20.7,17.51Zm6-9.15c7.17,0,9.69-2.45,9.69-7.36,0-3-2.33-4.65-7.37-4.65H18.11l-2.32,12Z"/><path class="cls-1" d="M47.09,0H57L50.68,32.77c-.73,3.58.59,4.51,3.25,4.51l-1.6,8.49c-8.88,0-13.66-2.46-11.87-11.61Z"/><path class="cls-1" d="M72.17,25.54h5.9l.2-1c.66-3.25.26-4.51-4.38-4.51-2.85,0-4.24.53-5.77,2.26l-6.3-5c3.58-4.38,7.76-5.31,14.79-5.31,8.62,0,13.13,3.32,11.34,12.67L83.84,45.77H74.16l.46-2.39c-1.39,1.66-3.52,3-7.56,3-5,0-9.35-3.12-9.35-9.15C57.71,29.72,63.48,25.54,72.17,25.54Zm4.57,7H72.23c-3,0-4.57,1.13-4.57,3.58,0,1.59,1.26,2.45,3.51,2.45,3.32,0,4.78-2,5.37-5Z"/><path class="cls-1" d="M93.92,12.6h4.25l1.39-7.29h10l-1.39,7.29h6L112.43,21h-6l-2.39,12.4c-.53,2.66,0,3.78,2.45,3.78h2.79l-1.66,8.63h-3.91c-7.9,0-11.48-2.92-9.89-11.15L96.51,21H92.26Z"/><path class="cls-1" d="M120.65,12.6C122.77,1.72,126.16,0,134.45,0H138l-1.66,8.62h-1.79c-2.45,0-3.25.87-4,4h5L134,21h-5l-4.84,24.81h-10L119.06,21h-4.25l1.6-8.36Z"/><path class="cls-1" d="M163.83,31c-1.79,9.62-6.5,15.39-17.58,15.39-9.42,0-13.4-6.7-11.6-15.39l.79-3.91c2-9.75,7.1-15.19,17.51-15.19,9.42,0,13.14,5.7,11.61,15.26ZM154,30.58l.53-2.92c.93-4.91.4-7.36-3.18-7.36s-5.17,2.45-6.1,7.36l-.53,2.92c-.8,4.38-.93,7.49,3.18,7.49S153.22,35,154,30.58Z"/><path class="cls-1" d="M188.31,22.82a3.11,3.11,0,0,0-3-2.39c-2.85,0-4.91,2-5.77,6.43L175.9,45.77H166l6.44-33.17h9.68l-.4,2.19a11,11,0,0,1,7.5-2.85c3.78,0,6.23,2.39,7.43,5.7Z"/><path class="cls-1" d="M200.05,12.6h9.68l-.46,2.26a11,11,0,0,1,8-2.92,7.94,7.94,0,0,1,7.43,4.24,14.7,14.7,0,0,1,10.61-4.24c7.1,0,10.48,5.24,8.89,13.27l-4,20.56h-10l3.65-18.91c.86-4.44.13-6.43-3-6.43-2.39,0-4.38,1.46-5.24,5.77l-3.78,19.57h-10l3.65-18.91c.93-4.9-.33-6.43-2.85-6.43s-4.51,1.59-5.44,6.37l-3.72,19h-9.95Z"/></g></g></svg>