<svg xmlns="http://www.w3.org/2000/svg" viewBox="0 0 223.79 58.37"><title>projects_2</title><g id="レイヤー_2" data-name="レイヤー 2"><g id="レイヤー_1-2" data-name="レイヤー 1"><path d="M9.29,29.65V45.77H0V0H16.38C26.93,0,33.5,4.84,33.5,14.66s-6.5,15-17.12,15Zm5.77-7.83c6.43,0,9.15-2.25,9.15-7.16,0-4.38-2.72-6.77-9.15-6.77H9.29V21.82Z"/><path d="M56,21.82A4.88,4.88,0,0,0,51.8,19.3c-3.18,0-5.3,2.32-5.3,7v19.5H38V12.6H46.3v2.79C47.43,13.73,49.61,12,53.53,12a9.69,9.69,0,0,1,8.95,5.17Z"/><path d="M92.66,31.11c0,9.09-4.31,15.26-14.33,15.26-9.61,0-14.32-6-14.32-15.26v-4C64,17.18,69.25,12,78.33,12s14.33,5.17,14.33,15.12Zm-8.42-.27V27.39c0-5.3-1.73-8.22-5.91-8.22s-5.9,2.92-5.9,8.22v3.45c0,4.78,1.2,8.36,5.9,8.36S84.24,35.62,84.24,30.84Z"/><path d="M107.78,47.56c0,8.49-4,10.81-12.86,10.81v-7.3c3.51,0,4.44-1.59,4.44-4.7V12.6h8.42ZM99,0h9.09V8.22H99Z"/><path d="M140.62,40.73c-2.33,4-6.17,5.64-12.14,5.64-9.95,0-14.73-6.44-14.73-15V26.86c0-10,5-14.85,13.67-14.85,9.35,0,13.66,5.44,13.66,15.52v3.78h-18.9c.06,4.57,1.52,7.89,6.23,7.89,3.52,0,4.64-1.06,5.91-2.85ZM122.18,25.27h10.41c-.2-4.31-1.92-6.1-5.11-6.1C124.1,19.17,122.51,21.49,122.18,25.27Z"/><path d="M172.85,40.73c-2.32,3.91-6.1,5.64-12.07,5.64-9.49,0-14.79-6-14.79-15V26.86C146,17.18,151.36,12,161.25,12c5.1,0,9.28,1.85,11.6,5.5L166.49,22a6.25,6.25,0,0,0-5.44-2.79c-4.78,0-6.64,2.92-6.64,8.22v3.45c0,4.78,1.26,8.36,6.64,8.36a5.82,5.82,0,0,0,5.5-2.85Z"/><path d="M174.31,12.6h4.25V5.31H187V12.6h6.5v7.17H187V33.63c0,3.32.66,4.71,3.78,4.71h2.72v7.43H189.9c-8,0-11.34-2.26-11.34-10.81V19.77h-4.25Z"/><path d="M216.89,22c-1.45-1.73-2.91-2.66-6.5-2.66-2.18,0-4.17.66-4.17,2.59s1.79,2.72,5.3,3.25c8.16,1.26,12.27,4.38,12.27,10.94,0,6.37-4.44,10.29-13,10.29-6.76,0-10.88-1.66-13.73-5.51l6.5-4.64c1.33,1.79,3,2.85,7.1,2.85,2.92,0,4.71-1,4.71-2.72,0-2.06-1.46-2.72-5.64-3.38-6.9-1.13-11.94-4-11.94-10.75,0-6.3,4.51-10.21,12.8-10.21,5.44,0,9.95,1.26,12.54,5.5Z"/></g></g></svg>
