<svg xmlns="http://www.w3.org/2000/svg" viewBox="0 0 339.47 46.37"><title>Recruitment</title><g id="レイヤー_2" data-name="レイヤー 2"><g id="レイヤー_1-2" data-name="レイヤー 1"><path d="M24.94,45.77l-8.23-18H9.29v18H0V0H16.38C26.93,0,33.5,4.71,33.5,14c0,6.16-2.86,10.21-7.83,12.27l9.48,19.5ZM15.52,20c5.51,0,8.69-1.19,8.69-6S21,7.89,15.52,7.89H9.29V20Z"/><path d="M65.47,40.73c-2.33,4-6.17,5.64-12.14,5.64-9.95,0-14.73-6.44-14.73-15V26.86c0-10,5-14.85,13.67-14.85,9.35,0,13.66,5.44,13.66,15.52v3.78H47c.06,4.57,1.52,7.89,6.23,7.89,3.52,0,4.64-1.06,5.91-2.85ZM47,25.27H57.44c-.2-4.31-1.92-6.1-5.11-6.1C49,19.17,47.36,21.49,47,25.27Z"/><path d="M97.7,40.73c-2.32,3.91-6.1,5.64-12.07,5.64-9.49,0-14.79-6-14.79-15V26.86C70.84,17.18,76.21,12,86.09,12c5.11,0,9.29,1.85,11.61,5.5L91.33,22a6.22,6.22,0,0,0-5.43-2.79c-4.78,0-6.64,2.92-6.64,8.22v3.45c0,4.78,1.26,8.36,6.64,8.36a5.82,5.82,0,0,0,5.5-2.85Z"/><path d="M119.59,21.82a4.88,4.88,0,0,0-4.18-2.52c-3.18,0-5.3,2.32-5.3,7v19.5h-8.49V12.6h8.29v2.79C111,13.73,113.22,12,117.14,12a9.69,9.69,0,0,1,9,5.17Z"/><path d="M156.87,45.77h-8.29V43c-1.4,2.26-3.19,3.39-7.57,3.39-6.69,0-12.2-3.32-12.2-13.07V12.6h8.49V32c0,5.24,1.86,7,5.37,7,3.92,0,5.77-2.39,5.77-7V12.6h8.43Z"/><path d="M164.36,0h9.16V8.22h-9.16Zm.33,12.6h8.49V45.77h-8.49Z"/><path d="M178.49,12.6h4.24V5.31h8.43V12.6h6.5v7.17h-6.5V33.63c0,3.32.66,4.71,3.78,4.71h2.72v7.43h-3.58c-8,0-11.35-2.26-11.35-10.81V19.77h-4.24Z"/><path d="M230.09,45.77h-8.42V26.33c0-5.3-2.06-7-5-7s-5.24,2.26-5.24,7v19.5H202.9V12.6h8.29v2.79A8.77,8.77,0,0,1,218.55,12a10.84,10.84,0,0,1,9.29,4.44A12.06,12.06,0,0,1,237.39,12c7.23,0,11.48,4.37,11.48,13V45.77h-8.49V26.33c0-5-1.73-7-5.11-7-3.05,0-5.18,2.26-5.18,7Z"/><path d="M281.3,40.73c-2.32,4-6.17,5.64-12.14,5.64-10,0-14.72-6.44-14.72-15V26.86c0-10,5-14.85,13.66-14.85,9.35,0,13.66,5.44,13.66,15.52v3.78h-18.9c.07,4.57,1.53,7.89,6.24,7.89,3.51,0,4.64-1.06,5.9-2.85ZM262.86,25.27h10.41c-.19-4.31-1.92-6.1-5.1-6.1C264.78,19.17,263.19,21.49,262.86,25.27Z"/><path d="M287.87,12.6h8.29v2.79A9.54,9.54,0,0,1,303.79,12c6.69,0,12.13,3.18,12.13,13V45.77H307.5V26.33c0-5.17-1.86-7-5.31-7-3.91,0-5.83,2.59-5.83,7v19.5h-8.49Z"/><path d="M320.3,12.6h4.25V5.31H333V12.6h6.5v7.17H333V33.63c0,3.32.66,4.71,3.78,4.71h2.72v7.43h-3.58c-8,0-11.34-2.26-11.34-10.81V19.77H320.3Z"/></g></g></svg>