<svg xmlns="http://www.w3.org/2000/svg" viewBox="0 0 508.14 480.3"><defs><style>.cls-1{fill:#231815;}</style></defs><title>seminar</title><g id="レイヤー_2" data-name="レイヤー 2"><g id="レイヤー_1-2" data-name="レイヤー 1"><path class="cls-1" d="M96.87,118.05A37.66,37.66,0,1,0,59.22,80.39,37.66,37.66,0,0,0,96.87,118.05Z"/><path class="cls-1" d="M191,122.87a16.68,16.68,0,0,0-6.2,8c-2.45,6.69-8.37,16.9-13.1,23.21-3-2.56-6.58-6-9.54-8.83-3.95-3.76-8.28-7.88-13-12.06a16.6,16.6,0,0,0-8.82-4V129H138c-.38,0-.75,0-1.12,0H56.08a12.34,12.34,0,0,0-1.36,0H53.29v.17a16.56,16.56,0,0,0-9.78,5C35.37,142.71,29.09,156,23,168.93c-2.24,4.73-4.44,9.42-6.67,13.66C6.27,201.8,10.64,224,13.53,238.72c.64,3.26,1.3,6.64,1.43,8.32a16.75,16.75,0,0,0,16.68,15.49c.43,0,.86,0,1.29,0a16.75,16.75,0,0,0,15.43-18,108.57,108.57,0,0,0-2-12.25c-2.1-10.7-5-25.35-.39-34.1,2.43-4.64,4.85-9.75,7.29-14.91v76.12h87.08V170.71c10.31,9.8,21.56,20.08,33.4,20.08a21.88,21.88,0,0,0,13.12-4.6,40.54,40.54,0,0,0,4.15-3.6v17.66h317.1V0H191ZM499.14,9V191.25H200V172c7.55-10.49,13.81-22.91,16.25-29.57a16.72,16.72,0,0,0-.53-12.81l27-43.66-7.66-4.73-25.5,41.32a17.61,17.61,0,0,0-3.22-1.61,16.84,16.84,0,0,0-6.29-1V9Z"/><path class="cls-1" d="M93.29,333.18a37.66,37.66,0,1,0-37.65,37.66A37.66,37.66,0,0,0,93.29,333.18Z"/><path class="cls-1" d="M111.27,419.61a42.18,42.18,0,0,0-42.18-42.18H42.18A42.19,42.19,0,0,0,0,419.61V480.3H111.27Z"/><path class="cls-1" d="M222.32,333.18a37.66,37.66,0,1,0-37.66,37.66A37.67,37.67,0,0,0,222.32,333.18Z"/><path class="cls-1" d="M129,419.61V480.3H240.29V419.61a42.18,42.18,0,0,0-42.18-42.18H171.2A42.19,42.19,0,0,0,129,419.61Z"/><path class="cls-1" d="M351.34,333.18a37.66,37.66,0,1,0-37.66,37.66A37.66,37.66,0,0,0,351.34,333.18Z"/><path class="cls-1" d="M258,419.61V480.3H369.32V419.61a42.19,42.19,0,0,0-42.19-42.18h-26.9A42.19,42.19,0,0,0,258,419.61Z"/><path class="cls-1" d="M480.36,333.18a37.66,37.66,0,1,0-37.66,37.66A37.66,37.66,0,0,0,480.36,333.18Z"/><path class="cls-1" d="M456.16,377.43H429.25a42.18,42.18,0,0,0-42.18,42.18V480.3H498.34V419.61A42.19,42.19,0,0,0,456.16,377.43Z"/></g></g></svg>