<svg xmlns="http://www.w3.org/2000/svg" viewBox="0 0 523.21 106.13"><defs><style>.cls-1{fill:#dc4227;}</style></defs><title>copy</title><g id="レイヤー_2" data-name="レイヤー 2"><g id="レイヤー_1-2" data-name="レイヤー 1"><path class="cls-1" d="M523.21,42.88l-6.81,5.81V32.76h6.81Z"/><path class="cls-1" d="M19.63,12.63c-1.5-2.35-3.3-3.51-6.81-3.51C9.67,9.12,8,10.58,8,12.93c0,2.71,2.21,3.91,6.82,5.06C22,19.79,25.25,22.5,25.25,28.61c0,5.66-3.81,10.07-11.93,10.07C7.26,38.68,3.06,37,0,33l5.36-3.71a8.62,8.62,0,0,0,7.51,3.46c4,0,5.36-1.76,5.36-3.86,0-2.4-1.45-3.76-7.06-5.21C4.36,21.9,1,18.64,1,12.93,1,7.47,4.56,3.21,12.77,3.21c5.51,0,9.67,1.86,12.12,5.66Z"/><path class="cls-1" d="M53.5,3.67v6H44v28.6H37V9.63H27.45v-6Z"/><path class="cls-1" d="M53.7,38.23l12-34.56h6.72l12,34.56H77l-2.1-6.57H63.32l-2.1,6.57ZM65.17,25.75H73L69.08,13.58Z"/><path class="cls-1" d="M106.55,38.23l-6.21-13.58H94.73V38.23h-7V3.67h12.37c8,0,12.92,3.55,12.92,10.56,0,4.66-2.15,7.72-5.91,9.27l7.16,14.73ZM99.44,18.74c4.15,0,6.56-.9,6.56-4.51s-2.41-4.6-6.56-4.6H94.73v9.11Z"/><path class="cls-1" d="M141.67,3.67v6h-9.52v28.6h-7V9.63h-9.52v-6Z"/><path class="cls-1" d="M174.41,38.6h-6.66L159.84,4h7.51L172,26.78,178.52,4h6.31l6.76,22.89L196.15,4h7.56l-8,34.56H189l-7.32-23.79Z"/><path class="cls-1" d="M214.94,38.6h-7V4h7Z"/><path class="cls-1" d="M245.29,4v6h-9.51V38.6h-7V10h-9.51V4Z"/><path class="cls-1" d="M256.12,17.76h12V4h7V38.6h-7V23.67h-12V38.6h-7V4h7Z"/><path class="cls-1" d="M306.7,39.09h-7V4.53h7Z"/><path class="cls-1" d="M375.4,26.92V39.09h-7V4.53h12.37c8,0,12.92,3.65,12.92,11.07s-4.91,11.32-12.92,11.32ZM379.76,21c4.85,0,6.91-1.71,6.91-5.41,0-3.31-2.06-5.11-6.91-5.11H375.4V21Z"/><path class="cls-1" d="M424.49,4.53V25.06c0,10.22-5.61,14.48-13.28,14.48s-13.27-4.26-13.27-14.43V4.53h7V25.11c0,5.91,2,8.52,6.26,8.52s6.27-2.61,6.27-8.52V4.53Z"/><path class="cls-1" d="M438.32,33.18h14.52v5.91H431.3V4.53h7Z"/><path class="cls-1" d="M474.53,13.49c-1.5-2.35-3.3-3.5-6.81-3.5-3.15,0-4.86,1.45-4.86,3.8,0,2.71,2.21,3.91,6.81,5.06,7.22,1.81,10.47,4.51,10.47,10.62,0,5.66-3.8,10.07-11.92,10.07-6.06,0-10.27-1.65-13.32-5.66l5.36-3.71a8.61,8.61,0,0,0,7.51,3.46c4,0,5.36-1.75,5.36-3.86,0-2.4-1.45-3.75-7.06-5.21-6.81-1.8-10.22-5.06-10.22-10.77,0-5.46,3.61-9.71,11.82-9.71,5.51,0,9.67,1.85,12.12,5.66Z"/><path class="cls-1" d="M506.89,4.53v6H492.37v7.76h13v5.91h-13v9h14.52v5.91H485.36V4.53Z"/><path class="cls-1" d="M335.59,28.89,347.59,0,357,30.52v7H353.7l-6.11-21.22L335.75,42.35,326.16,25,322,37.33h-2.53V30.6L326,9.47Z"/><polygon class="cls-1" points="319.47 37.33 312.95 37.4 312.95 30.61 319.47 30.61 319.47 37.33"/><rect class="cls-1" x="356.99" y="30.52" width="4.22" height="6.97"/><path class="cls-1" d="M22.25,69.49v5.88H7.92v8.45H20.77v5.83H7.92v13.94H1V69.49Z"/><path class="cls-1" d="M34.16,103.59H27.24V69.49h6.92Z"/><path class="cls-1" d="M67,69.49v34.1H61.24L48,82.49v21.1H41.37V69.49h5.74l13.34,21.4V69.49Z"/><path class="cls-1" d="M81.21,103.59H74.29V69.49h6.92Z"/><path class="cls-1" d="M106.16,78.34c-1.48-2.32-3.26-3.46-6.72-3.46-3.11,0-4.79,1.43-4.79,3.76,0,2.66,2.17,3.85,6.72,5,7.11,1.78,10.32,4.44,10.32,10.47,0,5.59-3.75,9.93-11.76,9.93-6,0-10.13-1.63-13.14-5.58l5.29-3.66a8.5,8.5,0,0,0,7.41,3.41c4,0,5.29-1.73,5.29-3.8,0-2.37-1.44-3.71-7-5.14-6.72-1.78-10.08-5-10.08-10.62,0-5.39,3.56-9.59,11.66-9.59,5.44,0,9.54,1.83,12,5.58Z"/><path class="cls-1" d="M123.75,83h11.82V69.49h6.91v34.1h-6.91V88.86H123.75v14.73h-6.91V69.49h6.91Z"/><path class="cls-1" d="M174.22,104.08h-6.58L159.84,70h7.41l4.54,22.44L178.27,70h6.22l6.67,22.59L195.66,70h7.46l-7.85,34.1h-6.63l-7.21-23.47Z"/><path class="cls-1" d="M214.2,104.08h-6.92V70h6.92Z"/><path class="cls-1" d="M244.14,70v5.88h-9.39v28.22h-6.92V75.86h-9.38V70Z"/><path class="cls-1" d="M254.82,83.52h11.81V70h6.92v34.1h-6.92V89.35H254.82v14.73H247.9V70h6.92Z"/><path class="cls-1" d="M372.9,91.08v12H366V69h12.2c7.86,0,12.75,3.61,12.75,10.92s-4.84,11.17-12.75,11.17Zm4.3-5.83c4.79,0,6.81-1.68,6.81-5.34,0-3.26-2-5-6.81-5h-4.3V85.25Z"/><path class="cls-1" d="M304.05,104.53h-6.91V70.43h6.91Z"/><path class="cls-1" d="M393.4,104.53l11.86-34.1h6.62l11.86,34.1h-7.37l-2.07-6.47H402.88l-2.07,6.47Zm11.31-12.31h7.71l-3.85-12Z"/><path class="cls-1" d="M445.64,81c-.65-3.21-2.52-5.19-5.88-5.19-4,0-6.13,2.72-6.13,9.24V89.9c0,6.33,2.12,9.24,6.13,9.24,3.45,0,5.13-1.73,5.88-5.19h6.57c-1.14,7.66-5.44,11-12.45,11-7.66,0-13.05-4.64-13.05-15.07V85.06c0-10.53,5.39-15.07,13.05-15.07,6.77,0,11.36,3.56,12.5,11Z"/><path class="cls-1" d="M478,70.43v5.88h-9.39v28.22h-6.91V76.31h-9.39V70.43Z"/><path class="cls-1" d="M333.67,92.85l11.84-28.49,9.27,30.11v6.87h-3.25l-6-20.94-11.68,25.73L324.36,89l-4.09,12.18h-2.5V94.55l6.47-20.85Z"/><polygon class="cls-1" points="317.77 101.19 311.34 101.25 311.34 94.55 317.77 94.55 317.77 101.19"/><rect class="cls-1" x="354.78" y="94.47" width="4.16" height="6.87"/><rect class="cls-1" x="481.55" y="96.64" width="7.71" height="7.71"/></g></g></svg>