<svg xmlns="http://www.w3.org/2000/svg" viewBox="0 0 110.8 27.67"><defs><style>.cls-1{fill:#231815;}</style></defs><title>supporting_twolines</title><g id="レイヤー_2" data-name="レイヤー 2"><g id="レイヤー_1-2" data-name="レイヤー 1"><path class="cls-1" d="M30.64,2.41a1.46,1.46,0,0,0-1.48-.75c-.66,0-.94.3-.94.72s.43.76,1.47,1.06c1.8.52,2.48,1.19,2.48,2.6s-1,2.48-2.89,2.48A3.81,3.81,0,0,1,26,7.16l1.49-1a1.93,1.93,0,0,0,1.66.74c.76,0,1.06-.32,1.06-.72S29.85,5.42,28.62,5C27,4.49,26.23,3.72,26.23,2.39S27.12,0,29.14,0a3.31,3.31,0,0,1,3,1.36Z"/><path class="cls-1" d="M38.31,8.4H36.54V7.93a1.23,1.23,0,0,1-1.26.59c-1.17,0-2.2-.58-2.2-2.38V2.4h1.8V5.8c0,.82.19,1.18.79,1.18s.84-.34.84-1.16V2.4h1.8Z"/><path class="cls-1" d="M44.67,5.8c0,1.56-.79,2.72-2.31,2.72a2.32,2.32,0,0,1-1.17-.24v2.39h-1.8V2.4h1.8v.3a1.61,1.61,0,0,1,1.19-.42c1.35,0,2.29,1,2.29,2.69Zm-1.8-.15V5.12c0-.89-.19-1.33-.84-1.33s-.84.44-.84,1.33v.71c0,.69.14,1.17.84,1.17S42.87,6.44,42.87,5.65Z"/><path class="cls-1" d="M50.85,5.8c0,1.56-.8,2.72-2.31,2.72a2.32,2.32,0,0,1-1.17-.24v2.39h-1.8V2.4h1.8v.3a1.61,1.61,0,0,1,1.19-.42c1.35,0,2.29,1,2.29,2.69Zm-1.8-.15V5.12c0-.89-.19-1.33-.84-1.33s-.84.44-.84,1.33v.71c0,.69.14,1.17.84,1.17S49.05,6.44,49.05,5.65Z"/><path class="cls-1" d="M56.85,5.73c0,1.68-.8,2.79-2.64,2.79s-2.64-1.11-2.64-2.79V5c0-1.84,1-2.76,2.64-2.76S56.85,3.2,56.85,5Zm-1.8-.08V5.12c0-.89-.2-1.33-.84-1.33s-.84.44-.84,1.33v.53c0,.79.09,1.35.84,1.35S55.05,6.44,55.05,5.65Z"/><path class="cls-1" d="M61,4.25a.74.74,0,0,0-.63-.44c-.51,0-.81.36-.81,1.17V8.4h-1.8v-6H59.5v.45a1.59,1.59,0,0,1,1.26-.57,1.69,1.69,0,0,1,1.57,1Z"/><path class="cls-1" d="M62.33,2.4h.77V1.08h1.8V2.4H66V3.91H64.9V6.15c0,.48.13.69.58.69H66V8.4h-.71c-1.46,0-2.17-.33-2.17-2V3.91h-.77Z"/><path class="cls-1" d="M66.94.12h1.92V1.8H66.94ZM67,2.4h1.8v6H67Z"/><path class="cls-1" d="M70.06,2.4h1.75v.45a1.65,1.65,0,0,1,1.27-.57c1.18,0,2.21.53,2.21,2.35V8.4h-1.8V5c0-.81-.19-1.17-.77-1.17s-.86.39-.86,1.16V8.4h-1.8Z"/><path class="cls-1" d="M79.67,2.4h1.8V8.28c0,2.15-1.22,2.47-2.69,2.47a2.62,2.62,0,0,1-2.47-1.12l1.18-.85a1.27,1.27,0,0,0,1.05.48c.84,0,1.13-.11,1.13-1V8.17a1.81,1.81,0,0,1-1.13.35c-1.53,0-2.35-1.11-2.35-2.72V5c0-1.77,1-2.69,2.35-2.69a2,2,0,0,1,1.13.32Zm0,3.43V5c0-.8-.23-1.2-.84-1.2S78,4.23,78,5.12v.53c0,.79.1,1.35.84,1.35S79.67,6.52,79.67,5.83Z"/><path class="cls-1" d="M4.41,19.67a1.12,1.12,0,0,0-1.15-1c-.83,0-1.27.59-1.27,1.95v1.3c0,1.29.43,1.95,1.27,1.95a1.06,1.06,0,0,0,1.15-1h1.9a2.77,2.77,0,0,1-3,2.68C1.38,25.52,0,24.38,0,21.91v-1.3C0,18.12,1.38,17,3.26,17a2.86,2.86,0,0,1,3.05,2.67Z"/><path class="cls-1" d="M12.31,22.73c0,1.68-.79,2.79-2.64,2.79S7,24.41,7,22.73V22c0-1.84,1-2.76,2.64-2.76s2.64.92,2.64,2.76Zm-1.8-.08v-.53c0-.89-.19-1.33-.84-1.33s-.84.44-.84,1.33v.53c0,.79.1,1.35.84,1.35S10.51,23.44,10.51,22.65Z"/><path class="cls-1" d="M13.21,19.4H15v.45a1.62,1.62,0,0,1,1.26-.57,2,2,0,0,1,1.65.75,2.24,2.24,0,0,1,1.69-.75c1.32,0,2.07.79,2.07,2.35V25.4h-1.8V22c0-.81-.2-1.17-.77-1.17s-.74.27-.74,1.05V25.4h-1.8V22c0-.89-.29-1.17-.74-1.17S15,21.1,15,22V25.4h-1.8Z"/><path class="cls-1" d="M28,22.8c0,1.56-.79,2.72-2.3,2.72a2.39,2.39,0,0,1-1.18-.24v2.39H22.72V19.4h1.79v.3a1.62,1.62,0,0,1,1.19-.42c1.36,0,2.29,1,2.29,2.69Zm-1.8-.15v-.53c0-.89-.19-1.33-.84-1.33s-.84.44-.84,1.33v.71c0,.69.15,1.17.84,1.17S26.19,23.44,26.19,22.65Z"/><path class="cls-1" d="M30.8,21.74h1.07v-.18c0-.59-.11-.82-.95-.82a1,1,0,0,0-1,.41l-1.26-.88c.47-.74,1.16-1,2.44-1,1.56,0,2.49.44,2.49,2.29V25.4H31.87v-.5a1.26,1.26,0,0,1-1.19.62,1.87,1.87,0,0,1-2.08-1.91C28.6,22.35,29.55,21.74,30.8,21.74ZM31.87,23h-.82c-.45,0-.7.15-.7.55s.27.54.73.54.79-.36.79-.91Z"/><path class="cls-1" d="M34.7,19.4h1.75v.45a1.68,1.68,0,0,1,1.28-.57c1.17,0,2.2.53,2.2,2.35V25.4h-1.8V22c0-.81-.19-1.17-.76-1.17s-.87.39-.87,1.16V25.4H34.7Z"/><path class="cls-1" d="M41.13,17.12h1.92V18.8H41.13Zm.06,2.28H43v6h-1.8Z"/><path class="cls-1" d="M49,24.48a2.28,2.28,0,0,1-2.23,1,2.5,2.5,0,0,1-2.72-2.72V22c0-1.86,1-2.69,2.52-2.69,1.74,0,2.52,1,2.52,2.87v.7H45.87c0,.69.2,1.15.93,1.15a.9.9,0,0,0,.9-.44Zm-3.13-2.83h1.42c0-.66-.28-.86-.7-.86S45.93,21.11,45.89,21.65Z"/><path class="cls-1" d="M53.31,21.23a1.17,1.17,0,0,0-1-.42c-.25,0-.56.05-.56.32s.19.3.74.4c1.65.32,2.26,1,2.26,2.08s-.85,1.91-2.4,1.91a2.86,2.86,0,0,1-2.56-1l1.4-1c.2.28.44.47,1.12.47.4,0,.64-.11.64-.32s-.21-.32-.77-.44c-1.35-.3-2.23-.85-2.23-2s.86-1.92,2.4-1.92a2.49,2.49,0,0,1,2.31,1Z"/><path class="cls-1" d="M59.8,20.84a3.11,3.11,0,0,1-.75-1.93c0-1.17,1-1.91,2.39-1.91s2.36.77,2.36,1.67-.84,1.62-1.68,2.26l1.27,1.43a3.44,3.44,0,0,0,.08-.83h1.9a4.32,4.32,0,0,1-.64,2.34L66.1,25.4H63.91l-.36-.4a4.17,4.17,0,0,1-2.13.52c-1.89,0-3-1.13-3-2.31A3,3,0,0,1,59.8,20.84Zm2.58,2.88L60.82,22a1.38,1.38,0,0,0-.43.88,1,1,0,0,0,1.14,1A2.4,2.4,0,0,0,62.38,23.72Zm-1.14-3.89c.47-.35.81-.67.81-1.07s-.23-.48-.58-.48-.55.17-.55.63A1.89,1.89,0,0,0,61.24,19.83Z"/><path class="cls-1" d="M71.88,22.6v2.8h-2V17.12H73c1.91,0,3.13.84,3.13,2.69S74.92,22.6,73,22.6ZM72.64,21c1,0,1.5-.32,1.5-1.14s-.45-1-1.5-1h-.76V21Z"/><path class="cls-1" d="M80,21.25a.74.74,0,0,0-.63-.44c-.51,0-.81.36-.81,1.17V25.4H76.8v-6h1.75v.45a1.57,1.57,0,0,1,1.26-.57,1.69,1.69,0,0,1,1.57,1Z"/><path class="cls-1" d="M86.9,22.73c0,1.68-.79,2.79-2.64,2.79s-2.64-1.11-2.64-2.79V22c0-1.84,1-2.76,2.64-2.76S86.9,20.2,86.9,22Zm-1.8-.08v-.53c0-.89-.19-1.33-.84-1.33s-.84.44-.84,1.33v.53c0,.79.1,1.35.84,1.35S85.1,23.44,85.1,22.65Z"/><path class="cls-1" d="M89.76,25.67c0,1.67-.87,2-2.5,2V26.14c.47,0,.7-.16.7-.68V19.4h1.8ZM87.9,17.12h1.92V18.8H87.9Z"/><path class="cls-1" d="M95.66,24.48a2.28,2.28,0,0,1-2.23,1,2.5,2.5,0,0,1-2.71-2.72V22c0-1.86,1-2.69,2.52-2.69,1.73,0,2.51,1,2.51,2.87v.7H92.52c0,.69.19,1.15.92,1.15a.9.9,0,0,0,.9-.44Zm-3.13-2.83H94c0-.66-.29-.86-.71-.86S92.58,21.11,92.53,21.65Z"/><path class="cls-1" d="M101.48,24.48a2.32,2.32,0,0,1-2.23,1,2.51,2.51,0,0,1-2.71-2.72V22c0-1.77,1-2.69,2.83-2.69a2.33,2.33,0,0,1,2.11,1l-1.35.94a.89.89,0,0,0-.81-.46c-.79,0-1,.44-1,1.33v.53c0,.79.09,1.35,1,1.35a.85.85,0,0,0,.83-.44Z"/><path class="cls-1" d="M101.66,19.4h.77V18.08h1.8V19.4h1.08v1.51h-1.08v2.24c0,.48.13.69.57.69h.51V25.4h-.71c-1.46,0-2.17-.33-2.17-2V20.91h-.77Z"/><path class="cls-1" d="M109.39,21.23a1.17,1.17,0,0,0-1-.42c-.25,0-.57.05-.57.32s.2.3.75.4c1.64.32,2.25,1,2.25,2.08s-.85,1.91-2.4,1.91a2.85,2.85,0,0,1-2.55-1l1.39-1c.2.28.44.47,1.13.47.39,0,.63-.11.63-.32s-.2-.32-.76-.44c-1.36-.3-2.24-.85-2.24-2s.87-1.92,2.4-1.92a2.51,2.51,0,0,1,2.32,1Z"/></g></g></svg>