<svg xmlns="http://www.w3.org/2000/svg" viewBox="0 0 629.13 59.37"><title>supportingcompanies_1</title><g id="レイヤー_2" data-name="レイヤー 2"><g id="レイヤー_1-2" data-name="レイヤー 1"><path d="M26,12.47c-2-3.12-4.38-4.64-9-4.64-4.18,0-6.43,1.92-6.43,5,0,3.58,2.91,5.17,9,6.7,9.55,2.39,13.86,6,13.86,14.06,0,7.5-5,13.33-15.79,13.33C9.62,47,4.05,44.77,0,39.47l7.1-4.91c2.45,3,5.24,4.57,10,4.57,5.3,0,7.09-2.32,7.09-5.1,0-3.19-1.92-5-9.35-6.9-9-2.39-13.53-6.7-13.53-14.26C1.26,5.64,6,0,16.91,0,24.21,0,29.72,2.46,33,7.5Z"/><path d="M67.26,46.37H59V43.58C57.57,45.83,55.78,47,51.41,47c-6.7,0-12.21-3.31-12.21-13.07V13.2h8.49V32.63c0,5.25,1.86,7,5.37,7,3.92,0,5.77-2.39,5.77-7V13.2h8.43Z"/><path d="M102.81,32c0,8.62-4.38,15-12.93,15-3.45,0-5.77-.66-7.3-1.92V59H74.09V13.2h8.49v2.19c1.59-1.79,4-2.79,7.36-2.79,7.7,0,12.87,5.38,12.87,14.86Zm-8.49-.53V28c0-5.3-1.66-8.22-5.84-8.22s-5.9,2.65-5.9,7.49v4.18c0,4.78,1.13,8.36,5.9,8.36C93.06,39.8,94.32,36.22,94.32,31.44Z"/><path d="M137.1,32c0,8.62-4.38,15-12.93,15-3.45,0-5.77-.66-7.3-1.92V59h-8.49V13.2h8.49v2.19c1.59-1.79,4-2.79,7.36-2.79,7.7,0,12.87,5.38,12.87,14.86Zm-8.49-.53V28c0-5.3-1.66-8.22-5.83-8.22s-5.91,2.65-5.91,7.49v4.18c0,4.78,1.13,8.36,5.91,8.36C127.35,39.8,128.61,36.22,128.61,31.44Z"/><path d="M170.13,31.71c0,9.08-4.31,15.25-14.32,15.25-9.62,0-14.33-6-14.33-15.25v-4c0-9.95,5.24-15.13,14.33-15.13s14.32,5.18,14.32,15.13Zm-8.42-.27V28c0-5.3-1.72-8.22-5.9-8.22S149.9,22.69,149.9,28v3.45c0,4.78,1.2,8.36,5.91,8.36S161.71,36.22,161.71,31.44Z"/><path d="M193.75,22.42a4.9,4.9,0,0,0-4.18-2.52c-3.19,0-5.31,2.32-5.31,7V46.37h-8.49V13.2h8.29V16c1.13-1.66,3.32-3.39,7.23-3.39a9.71,9.71,0,0,1,9,5.18Z"/><path d="M200.51,13.2h4.25V5.9h8.42v7.3h6.5v7.16h-6.5V34.23c0,3.31.66,4.71,3.78,4.71h2.72v7.43H216.1c-8,0-11.34-2.26-11.34-10.82V20.36h-4.25Z"/><path d="M225.58.6h9.16V8.82h-9.16Zm.34,12.6h8.49V46.37h-8.49Z"/><path d="M242.17,13.2h8.29V16a9.54,9.54,0,0,1,7.63-3.39c6.7,0,12.13,3.19,12.13,13V46.37H261.8V26.93c0-5.17-1.86-7-5.31-7-3.91,0-5.83,2.59-5.83,7V46.37h-8.49Z"/><path d="M296.09,13.2h8.43V45.7c0,11.08-6.24,13.67-14.6,13.67-6.17,0-10.08-1.46-13-6l5.71-4.12c1.46,2,3.38,3,6.5,3,5,0,7-1.46,7-6.57V44.64A10.48,10.48,0,0,1,289,47c-8.69,0-13.13-6.17-13.13-15V27.46c0-9.68,5.24-14.86,13.13-14.86a10.53,10.53,0,0,1,7.1,2.32Zm0,19V28c0-5.3-1.72-8.22-5.9-8.22s-5.9,2.92-5.9,8.22v3.45c0,4.78,1.32,8.36,5.9,8.36S296.09,36.55,296.09,32.17Z"/><path d="M353.07,14.79c-.86-4.31-3.38-7-7.89-7-5.38,0-8.23,3.65-8.23,12.4v6.5c0,8.49,2.85,12.4,8.23,12.4,4.64,0,6.89-2.32,7.89-7h8.82C360.37,42.45,354.59,47,345.18,47c-10.29,0-17.51-6.23-17.51-20.23v-6.5C327.67,6.1,334.89,0,345.18,0c9.08,0,15.25,4.78,16.78,14.79Z"/><path d="M394.79,31.71c0,9.08-4.31,15.25-14.33,15.25-9.61,0-14.32-6-14.32-15.25v-4c0-9.95,5.24-15.13,14.32-15.13s14.33,5.18,14.33,15.13Zm-8.42-.27V28c0-5.3-1.73-8.22-5.91-8.22s-5.9,2.92-5.9,8.22v3.45c0,4.78,1.19,8.36,5.9,8.36S386.37,36.22,386.37,31.44Z"/><path d="M427.62,46.37H419.2V26.93c0-5.31-2.06-7-5-7s-5.24,2.25-5.24,7V46.37h-8.49V13.2h8.29V16a8.77,8.77,0,0,1,7.36-3.39,10.85,10.85,0,0,1,9.29,4.45,12.07,12.07,0,0,1,9.55-4.45c7.23,0,11.47,4.38,11.47,13V46.37H437.9V26.93c0-5-1.72-7-5.1-7-3.05,0-5.18,2.25-5.18,7Z"/><path d="M481.88,32c0,8.62-4.38,15-12.93,15-3.45,0-5.77-.66-7.3-1.92V59h-8.49V13.2h8.49v2.19c1.59-1.79,4-2.79,7.36-2.79,7.7,0,12.87,5.38,12.87,14.86Zm-8.49-.53V28c0-5.3-1.66-8.22-5.84-8.22s-5.9,2.65-5.9,7.49v4.18c0,4.78,1.13,8.36,5.9,8.36C472.13,39.8,473.39,36.22,473.39,31.44Z"/><path d="M498.07,26.47h6.56V24.54c0-3.71-1.13-4.91-5.9-4.91-3.25,0-4.84.47-6.24,2.66l-6-4.18c2.46-4,6.17-5.51,13-5.51,8.56,0,13.4,2.52,13.4,12V46.37h-8.29V43.45C503.3,45.7,501.32,47,497.47,47c-6.9,0-11.68-3.65-11.68-10.41C485.79,29.52,491.1,26.47,498.07,26.47Zm6.56,6.23h-5.57c-3.45,0-5,1.13-5,3.72s1.93,3.71,4.85,3.71c3.84,0,5.7-1.66,5.7-6.17Z"/><path d="M519.69,13.2H528V16a9.54,9.54,0,0,1,7.63-3.39c6.7,0,12.14,3.19,12.14,13V46.37h-8.43V26.93c0-5.17-1.86-7-5.31-7-3.91,0-5.83,2.59-5.83,7V46.37h-8.49Z"/><path d="M555.24.6h9.15V8.82h-9.15Zm.33,12.6h8.49V46.37h-8.49Z"/><path d="M597.49,41.32c-2.32,4-6.17,5.64-12.14,5.64-10,0-14.72-6.43-14.72-15V27.46c0-10,5-14.86,13.66-14.86C593.64,12.6,598,18,598,28.13v3.78H579.05c.07,4.57,1.53,7.89,6.24,7.89,3.51,0,4.64-1.06,5.9-2.85ZM579.05,25.87h10.41c-.19-4.31-1.92-6.1-5.1-6.1C581,19.77,579.38,22.09,579.05,25.87Z"/><path d="M622.23,22.55c-1.46-1.72-2.92-2.65-6.5-2.65-2.19,0-4.18.66-4.18,2.59s1.79,2.72,5.31,3.25C625,27,629.13,30.11,629.13,36.68c0,6.37-4.44,10.28-13,10.28-6.77,0-10.88-1.66-13.73-5.5l6.5-4.65c1.33,1.79,3,2.86,7.1,2.86,2.92,0,4.71-1,4.71-2.72,0-2.06-1.46-2.72-5.64-3.39-6.9-1.12-11.94-4-11.94-10.74,0-6.3,4.51-10.22,12.8-10.22,5.44,0,10,1.26,12.54,5.51Z"/></g></g></svg>