<svg width="326" height="47" viewBox="0 0 326 47" fill="none" xmlns="http://www.w3.org/2000/svg">
<rect width="325.61" height="46.3722" fill="black" fill-opacity="0"/>
<rect width="325.61" height="46.3722" fill="black" fill-opacity="0"/>
<rect width="325.61" height="46.3722" fill="black" fill-opacity="0"/>
<path d="M19.3 45.77H10.48L0 0H10L16.1 30.11L24.74 0H33.1L42.05 30.31L48.09 0H58.09L47.56 45.77H38.67L29 14.26L19.3 45.77Z" fill="white"/>
<path d="M61.8799 0H70.3799V15.19C71.6299 13.53 73.9999 12 77.7999 12C84.4999 12 89.9399 15.18 89.9399 25V45.77H81.5199V26.33C81.5199 21.16 79.6599 19.33 76.2099 19.33C72.2999 19.33 70.3799 21.92 70.3799 26.33V45.83H61.8799V0Z" fill="white"/>
<path d="M107.39 25.87H114V23.94C114 20.23 112.88 19.04 108.1 19.04C104.85 19.04 103.26 19.5 101.86 21.69L95.86 17.51C98.32 13.46 102.03 12.01 108.86 12.01C117.41 12.01 122.25 14.53 122.25 24.01V45.77H114V42.85C112.68 45.1 110.69 46.36 106.84 46.36C99.94 46.36 95.17 42.72 95.17 35.95C95.12 28.92 100.42 25.87 107.39 25.87ZM114 32.1H108.43C104.98 32.1 103.43 33.23 103.43 35.82C103.43 38.41 105.35 39.53 108.27 39.53C112.12 39.53 113.97 37.87 113.97 33.36L114 32.1Z" fill="white"/>
<path d="M126.55 12.6001H130.8V5.31006H139.22V12.6001H145.72V19.7701H139.22V33.6301C139.22 36.9501 139.89 38.3401 143 38.3401H145.72V45.7701H142.14C134.14 45.7701 130.8 43.5101 130.8 34.9601V19.7701H126.55V12.6001Z" fill="white"/>
<path d="M180.41 45.77H173.52L164.36 12.6H173.12L177.83 31.6L184.53 12.6H190.76L197.93 31.6L202.63 12.6H211.46L202.24 45.77H195.4L187.91 25L180.41 45.77Z" fill="white"/>
<path d="M240.71 40.73C238.39 44.73 234.54 46.36 228.57 46.36C218.62 46.36 213.84 39.93 213.84 31.36V26.86C213.84 16.86 218.84 12.01 227.51 12.01C236.86 12.01 241.17 17.44 241.17 27.53V31.31H222.27C222.33 35.88 223.79 39.2 228.5 39.2C232.02 39.2 233.15 38.14 234.41 36.35L240.71 40.73ZM222.27 25.27H232.68C232.48 20.96 230.76 19.17 227.57 19.17C224.19 19.17 222.6 21.49 222.27 25.27Z" fill="white"/>
<path d="M282.89 0H291.32V45.77H282.89V43.84C280.948 45.5838 278.396 46.4896 275.79 46.36C267.11 46.36 262.66 40.2 262.66 31.36V26.86C262.66 17.18 267.9 12.01 275.79 12.01C278.361 11.8879 280.887 12.7134 282.89 14.33V0ZM282.89 30.84V26.66C282.89 21.82 280.97 19.17 276.99 19.17C272.81 19.17 271.09 22.09 271.09 27.39V30.84C271.09 35.62 272.41 39.2 276.99 39.2C281.77 39.2 282.89 35.62 282.89 30.84Z" fill="white"/>
<path d="M325.61 31.11C325.61 40.2 321.3 46.36 311.28 46.36C301.66 46.36 296.96 40.36 296.96 31.11V27.11C297 17.18 302.19 12 311.28 12C320.37 12 325.61 17.17 325.61 27.12V31.11ZM317.19 30.84V27.39C317.19 22.09 315.46 19.17 311.28 19.17C307.1 19.17 305.38 22.09 305.38 27.39V30.84C305.38 35.62 306.57 39.2 311.28 39.2C315.99 39.2 317.19 35.62 317.19 30.84Z" fill="white"/>
</svg>
