<svg xmlns="http://www.w3.org/2000/svg" viewBox="0 0 503.37 58.97"><title>whatisaproject_1</title><g id="レイヤー_2" data-name="レイヤー 2"><g id="レイヤー_1-2" data-name="レイヤー 1"><path d="M19.3,46.37H10.48L0,.6H10l6.1,30.11L24.74.6H33.1l8.95,30.31L48.09.6h10L47.56,46.37H38.67L29,14.86Z"/><path d="M61.89.6h8.49V15.79C71.64,14.13,74,12.6,77.8,12.6c6.7,0,12.14,3.19,12.14,13V46.37H81.52V26.93c0-5.17-1.86-7-5.31-7-3.91,0-5.83,2.59-5.83,7V46.37H61.89Z"/><path d="M107.39,26.47H114V24.54c0-3.71-1.12-4.91-5.9-4.91-3.25,0-4.84.47-6.23,2.66l-6-4.18c2.45-4,6.16-5.51,13-5.51,8.55,0,13.4,2.52,13.4,12V46.37H114V43.45c-1.32,2.25-3.31,3.51-7.16,3.51-6.9,0-11.67-3.65-11.67-10.41C95.12,29.52,100.42,26.47,107.39,26.47ZM114,32.7h-5.57c-3.45,0-5,1.13-5,3.72s1.92,3.71,4.84,3.71c3.85,0,5.7-1.66,5.7-6.17Z"/><path d="M126.56,13.2h4.24V5.9h8.42v7.3h6.51v7.16h-6.51V34.23c0,3.31.67,4.71,3.79,4.71h2.72v7.43h-3.59c-8,0-11.34-2.26-11.34-10.82V20.36h-4.24Z"/><path d="M168.21.6h9.15V8.82h-9.15Zm.33,12.6H177V46.37h-8.49Z"/><path d="M203,22.55c-1.46-1.72-2.92-2.65-6.5-2.65-2.19,0-4.18.66-4.18,2.59s1.79,2.72,5.3,3.25c8.16,1.26,12.28,4.37,12.28,10.94,0,6.37-4.45,10.28-13,10.28-6.77,0-10.88-1.66-13.74-5.5l6.5-4.65c1.33,1.79,3,2.86,7.1,2.86,2.92,0,4.71-1,4.71-2.72,0-2.06-1.46-2.72-5.64-3.39-6.9-1.12-11.94-4-11.94-10.74,0-6.3,4.52-10.22,12.81-10.22,5.43,0,10,1.26,12.53,5.51Z"/><path d="M242.76,26.47h6.57V24.54c0-3.71-1.13-4.91-5.9-4.91-3.25,0-4.84.47-6.24,2.66l-6-4.18c2.46-4,6.17-5.51,13-5.51,8.56,0,13.4,2.52,13.4,12V46.37h-8.29V43.45C248,45.7,246,47,242.17,47c-6.9,0-11.68-3.65-11.68-10.41C230.49,29.52,235.8,26.47,242.76,26.47Zm6.57,6.23h-5.57c-3.45,0-5,1.13-5,3.72s1.93,3.71,4.85,3.71c3.84,0,5.7-1.66,5.7-6.17Z"/><path d="M309.69,32c0,8.62-4.38,15-12.93,15-3.45,0-5.77-.66-7.3-1.92V59H281V13.2h8.49v2.19c1.59-1.79,4-2.79,7.36-2.79,7.7,0,12.87,5.38,12.87,14.86Zm-8.49-.53V28c0-5.3-1.66-8.22-5.84-8.22s-5.9,2.65-5.9,7.49v4.18c0,4.78,1.13,8.36,5.9,8.36C299.94,39.8,301.2,36.22,301.2,31.44Z"/><path d="M333.24,22.42a4.9,4.9,0,0,0-4.18-2.52c-3.18,0-5.31,2.32-5.31,7V46.37h-8.49V13.2h8.29V16c1.13-1.66,3.32-3.39,7.23-3.39a9.71,9.71,0,0,1,9,5.18Z"/><path d="M369.92,31.71c0,9.08-4.31,15.25-14.33,15.25-9.62,0-14.33-6-14.33-15.25v-4c0-9.95,5.24-15.13,14.33-15.13s14.33,5.18,14.33,15.13Zm-8.43-.27V28c0-5.3-1.72-8.22-5.9-8.22s-5.9,2.92-5.9,8.22v3.45c0,4.78,1.19,8.36,5.9,8.36S361.49,36.22,361.49,31.44Z"/><path d="M385,48.16C385,56.65,381,59,372.17,59v-7.3c3.52,0,4.45-1.59,4.45-4.71V13.2H385ZM376.28.6h9.09V8.82h-9.09Z"/><path d="M417.87,41.32c-2.32,4-6.17,5.64-12.14,5.64C395.79,47,391,40.53,391,32V27.46c0-10,5-14.86,13.66-14.86,9.36,0,13.67,5.44,13.67,15.53v3.78H399.43c.07,4.57,1.53,7.89,6.24,7.89,3.51,0,4.64-1.06,5.9-2.85ZM399.43,25.87h10.42c-.2-4.31-1.93-6.1-5.11-6.1C401.36,19.77,399.76,22.09,399.43,25.87Z"/><path d="M450.11,41.32C447.79,45.24,444,47,438,47c-9.49,0-14.79-6-14.79-15V27.46c0-9.68,5.37-14.86,15.25-14.86,5.11,0,9.29,1.86,11.61,5.51l-6.37,4.44a6.25,6.25,0,0,0-5.44-2.78c-4.77,0-6.63,2.92-6.63,8.22v3.45c0,4.78,1.26,8.36,6.63,8.36A5.84,5.84,0,0,0,443.81,37Z"/><path d="M451.57,13.2h4.24V5.9h8.43v7.3h6.5v7.16h-6.5V34.23c0,3.31.66,4.71,3.78,4.71h2.72v7.43h-3.58c-8,0-11.35-2.26-11.35-10.82V20.36h-4.24Z"/><path d="M484.27,33.83V29.25c0-2.78.46-4.44,2.58-6.5l3-2.85c2.65-2.52,4.24-4.18,4.24-7.3S491.9,7.76,489,7.76c-2.72,0-5.11,1.53-5.18,4.51h-8.75C475.05,4.05,481.42,0,489,0c7.76,0,14.39,4.05,14.39,12.67,0,5.31-3,9-6.63,12.6l-2.19,2.12c-1.33,1.33-2.26,2.19-2.26,4.38v2.06Zm8.55,3.51h-9.08v9h9.08Z"/></g></g></svg>